<?xml version="1.0" encoding="UTF-8" standalone="no"?>
<svg
   xmlns:dc="http://purl.org/dc/elements/1.1/"
   xmlns:cc="http://creativecommons.org/ns#"
   xmlns:rdf="http://www.w3.org/1999/02/22-rdf-syntax-ns#"
   xmlns:svg="http://www.w3.org/2000/svg"
   xmlns="http://www.w3.org/2000/svg"
   viewBox="0 0 683.50665 587.98669"
   height="587.98669"
   width="683.50665"
   xml:space="preserve"
   id="svg2"
   version="1.1"><metadata
     id="metadata8"><rdf:RDF><cc:Work
         rdf:about=""><dc:format>image/svg+xml</dc:format><dc:type
           rdf:resource="http://purl.org/dc/dcmitype/StillImage" /></cc:Work></rdf:RDF></metadata><defs
     id="defs6"><clipPath
       id="clipPath506"
       clipPathUnits="userSpaceOnUse"><path
         id="path504"
         d="M 0,0 V 3150 H 3150 V 0 Z" /></clipPath><pattern
       id="pattern516"
       height="314.984"
       width="314.984"
       y="0"
       x="0"
       patternUnits="userSpaceOnUse"
       patternTransform="matrix(10,0,0,10,-1407,255)"><g
         id="g514"
         transform="scale(0.1)"><g
           id="g512"><g
             id="g510"
             clip-path="url(#clipPath506)"><path
               id="path508"
               style="fill:#1e2328;fill-opacity:1;fill-rule:nonzero;stroke:none"
               d="M 3149.84,0 0,0 l 0,3149.84 3149.84,0 0,-3149.84" /></g></g></g></pattern><clipPath
       id="clipPath522"
       clipPathUnits="userSpaceOnUse"><path
         id="path520"
         d="M 0,0 V 3150 H 3150 V 0 Z" /></clipPath><pattern
       id="pattern532"
       height="314.984"
       width="314.984"
       y="0"
       x="0"
       patternUnits="userSpaceOnUse"
       patternTransform="matrix(10,0,0,10,-1407,255)"><g
         id="g530"
         transform="scale(0.1)"><g
           id="g528"><g
             id="g526"
             clip-path="url(#clipPath522)"><path
               id="path524"
               style="fill:#1e2328;fill-opacity:1;fill-rule:nonzero;stroke:none"
               d="M 3149.84,0 0,0 l 0,3149.84 3149.84,0 0,-3149.84" /></g></g></g></pattern><clipPath
       id="clipPath538"
       clipPathUnits="userSpaceOnUse"><path
         id="path536"
         d="M 0,0 V 3150 H 3150 V 0 Z" /></clipPath><pattern
       id="pattern548"
       height="314.984"
       width="314.984"
       y="0"
       x="0"
       patternUnits="userSpaceOnUse"
       patternTransform="matrix(10,0,0,10,-1407,255)"><g
         id="g546"
         transform="scale(0.1)"><g
           id="g544"><g
             id="g542"
             clip-path="url(#clipPath538)"><path
               id="path540"
               style="fill:#1e2328;fill-opacity:1;fill-rule:nonzero;stroke:none"
               d="M 3149.84,0 0,0 l 0,3149.84 3149.84,0 0,-3149.84" /></g></g></g></pattern><clipPath
       id="clipPath554"
       clipPathUnits="userSpaceOnUse"><path
         id="path552"
         d="M 0,0 V 3150 H 3150 V 0 Z" /></clipPath><pattern
       id="pattern564"
       height="314.984"
       width="314.984"
       y="0"
       x="0"
       patternUnits="userSpaceOnUse"
       patternTransform="matrix(10,0,0,10,-1407,255)"><g
         id="g562"
         transform="scale(0.1)"><g
           id="g560"><g
             id="g558"
             clip-path="url(#clipPath554)"><path
               id="path556"
               style="fill:#1e2328;fill-opacity:1;fill-rule:nonzero;stroke:none"
               d="M 3149.84,0 0,0 l 0,3149.84 3149.84,0 0,-3149.84" /></g></g></g></pattern><clipPath
       id="clipPath570"
       clipPathUnits="userSpaceOnUse"><path
         id="path568"
         d="M 0,0 V 3150 H 3150 V 0 Z" /></clipPath><pattern
       id="pattern580"
       height="314.984"
       width="314.984"
       y="0"
       x="0"
       patternUnits="userSpaceOnUse"
       patternTransform="matrix(10,0,0,10,-1407,255)"><g
         id="g578"
         transform="scale(0.1)"><g
           id="g576"><g
             id="g574"
             clip-path="url(#clipPath570)"><path
               id="path572"
               style="fill:#1e2328;fill-opacity:1;fill-rule:nonzero;stroke:none"
               d="M 3149.84,0 0,0 l 0,3149.84 3149.84,0 0,-3149.84" /></g></g></g></pattern><clipPath
       id="clipPath586"
       clipPathUnits="userSpaceOnUse"><path
         id="path584"
         d="M 0,0 V 3150 H 3150 V 0 Z" /></clipPath><pattern
       id="pattern596"
       height="314.984"
       width="314.984"
       y="0"
       x="0"
       patternUnits="userSpaceOnUse"
       patternTransform="matrix(10,0,0,10,-1407,255)"><g
         id="g594"
         transform="scale(0.1)"><g
           id="g592"><g
             id="g590"
             clip-path="url(#clipPath586)"><path
               id="path588"
               style="fill:#1e2328;fill-opacity:1;fill-rule:nonzero;stroke:none"
               d="M 3149.84,0 0,0 l 0,3149.84 3149.84,0 0,-3149.84" /></g></g></g></pattern><clipPath
       id="clipPath602"
       clipPathUnits="userSpaceOnUse"><path
         id="path600"
         d="M 0,0 V 3150 H 3150 V 0 Z" /></clipPath><pattern
       id="pattern612"
       height="314.984"
       width="314.984"
       y="0"
       x="0"
       patternUnits="userSpaceOnUse"
       patternTransform="matrix(10,0,0,10,-1407,255)"><g
         id="g610"
         transform="scale(0.1)"><g
           id="g608"><g
             id="g606"
             clip-path="url(#clipPath602)"><path
               id="path604"
               style="fill:#1e2328;fill-opacity:1;fill-rule:nonzero;stroke:none"
               d="M 3149.84,0 0,0 l 0,3149.84 3149.84,0 0,-3149.84" /></g></g></g></pattern><clipPath
       id="clipPath618"
       clipPathUnits="userSpaceOnUse"><path
         id="path616"
         d="M 0,0 V 3150 H 3150 V 0 Z" /></clipPath><pattern
       id="pattern628"
       height="314.984"
       width="314.984"
       y="0"
       x="0"
       patternUnits="userSpaceOnUse"
       patternTransform="matrix(10,0,0,10,-1407,255)"><g
         id="g626"
         transform="scale(0.1)"><g
           id="g624"><g
             id="g622"
             clip-path="url(#clipPath618)"><path
               id="path620"
               style="fill:#1e2328;fill-opacity:1;fill-rule:nonzero;stroke:none"
               d="M 3149.84,0 0,0 l 0,3149.84 3149.84,0 0,-3149.84" /></g></g></g></pattern><clipPath
       id="clipPath634"
       clipPathUnits="userSpaceOnUse"><path
         id="path632"
         d="M 0,0 V 3150 H 3150 V 0 Z" /></clipPath><pattern
       id="pattern644"
       height="314.984"
       width="314.984"
       y="0"
       x="0"
       patternUnits="userSpaceOnUse"
       patternTransform="matrix(10,0,0,10,-1407,255)"><g
         id="g642"
         transform="scale(0.1)"><g
           id="g640"><g
             id="g638"
             clip-path="url(#clipPath634)"><path
               id="path636"
               style="fill:#1e2328;fill-opacity:1;fill-rule:nonzero;stroke:none"
               d="M 3149.84,0 0,0 l 0,3149.84 3149.84,0 0,-3149.84" /></g></g></g></pattern><clipPath
       id="clipPath650"
       clipPathUnits="userSpaceOnUse"><path
         id="path648"
         d="M 0,0 V 3150 H 3150 V 0 Z" /></clipPath><pattern
       id="pattern660"
       height="314.984"
       width="314.984"
       y="0"
       x="0"
       patternUnits="userSpaceOnUse"
       patternTransform="matrix(10,0,0,10,-1407,255)"><g
         id="g658"
         transform="scale(0.1)"><g
           id="g656"><g
             id="g654"
             clip-path="url(#clipPath650)"><path
               id="path652"
               style="fill:#1e2328;fill-opacity:1;fill-rule:nonzero;stroke:none"
               d="M 3149.84,0 0,0 l 0,3149.84 3149.84,0 0,-3149.84" /></g></g></g></pattern><clipPath
       id="clipPath666"
       clipPathUnits="userSpaceOnUse"><path
         id="path664"
         d="M 0,0 V 3150 H 3150 V 0 Z" /></clipPath><pattern
       id="pattern676"
       height="314.984"
       width="314.984"
       y="0"
       x="0"
       patternUnits="userSpaceOnUse"
       patternTransform="matrix(10,0,0,10,-1407,255)"><g
         id="g674"
         transform="scale(0.1)"><g
           id="g672"><g
             id="g670"
             clip-path="url(#clipPath666)"><path
               id="path668"
               style="fill:#1e2328;fill-opacity:1;fill-rule:nonzero;stroke:none"
               d="M 3149.84,0 0,0 l 0,3149.84 3149.84,0 0,-3149.84" /></g></g></g></pattern><clipPath
       id="clipPath682"
       clipPathUnits="userSpaceOnUse"><path
         id="path680"
         d="M 0,0 V 3150 H 3150 V 0 Z" /></clipPath><pattern
       id="pattern692"
       height="314.984"
       width="314.984"
       y="0"
       x="0"
       patternUnits="userSpaceOnUse"
       patternTransform="matrix(10,0,0,10,-1407,255)"><g
         id="g690"
         transform="scale(0.1)"><g
           id="g688"><g
             id="g686"
             clip-path="url(#clipPath682)"><path
               id="path684"
               style="fill:#1e2328;fill-opacity:1;fill-rule:nonzero;stroke:none"
               d="M 3149.84,0 0,0 l 0,3149.84 3149.84,0 0,-3149.84" /></g></g></g></pattern><clipPath
       id="clipPath698"
       clipPathUnits="userSpaceOnUse"><path
         id="path696"
         d="M 0,0 V 3150 H 3150 V 0 Z" /></clipPath><pattern
       id="pattern708"
       height="314.984"
       width="314.984"
       y="0"
       x="0"
       patternUnits="userSpaceOnUse"
       patternTransform="matrix(10,0,0,10,-1407,255)"><g
         id="g706"
         transform="scale(0.1)"><g
           id="g704"><g
             id="g702"
             clip-path="url(#clipPath698)"><path
               id="path700"
               style="fill:#1e2328;fill-opacity:1;fill-rule:nonzero;stroke:none"
               d="M 3149.84,0 0,0 l 0,3149.84 3149.84,0 0,-3149.84" /></g></g></g></pattern><clipPath
       id="clipPath714"
       clipPathUnits="userSpaceOnUse"><path
         id="path712"
         d="M 0,0 V 3150 H 3150 V 0 Z" /></clipPath><pattern
       id="pattern724"
       height="314.984"
       width="314.984"
       y="0"
       x="0"
       patternUnits="userSpaceOnUse"
       patternTransform="matrix(10,0,0,10,-1407,255)"><g
         id="g722"
         transform="scale(0.1)"><g
           id="g720"><g
             id="g718"
             clip-path="url(#clipPath714)"><path
               id="path716"
               style="fill:#1e2328;fill-opacity:1;fill-rule:nonzero;stroke:none"
               d="M 3149.84,0 0,0 l 0,3149.84 3149.84,0 0,-3149.84" /></g></g></g></pattern><clipPath
       id="clipPath730"
       clipPathUnits="userSpaceOnUse"><path
         id="path728"
         d="M 0,0 V 3150 H 3150 V 0 Z" /></clipPath><pattern
       id="pattern740"
       height="314.984"
       width="314.984"
       y="0"
       x="0"
       patternUnits="userSpaceOnUse"
       patternTransform="matrix(10,0,0,10,-1407,255)"><g
         id="g738"
         transform="scale(0.1)"><g
           id="g736"><g
             id="g734"
             clip-path="url(#clipPath730)"><path
               id="path732"
               style="fill:#1e2328;fill-opacity:1;fill-rule:nonzero;stroke:none"
               d="M 3149.84,0 0,0 l 0,3149.84 3149.84,0 0,-3149.84" /></g></g></g></pattern><clipPath
       id="clipPath746"
       clipPathUnits="userSpaceOnUse"><path
         id="path744"
         d="M 0,0 V 3150 H 3150 V 0 Z" /></clipPath><pattern
       id="pattern756"
       height="314.984"
       width="314.984"
       y="0"
       x="0"
       patternUnits="userSpaceOnUse"
       patternTransform="matrix(10,0,0,10,-1407,255)"><g
         id="g754"
         transform="scale(0.1)"><g
           id="g752"><g
             id="g750"
             clip-path="url(#clipPath746)"><path
               id="path748"
               style="fill:#1e2328;fill-opacity:1;fill-rule:nonzero;stroke:none"
               d="M 3149.84,0 0,0 l 0,3149.84 3149.84,0 0,-3149.84" /></g></g></g></pattern><clipPath
       id="clipPath762"
       clipPathUnits="userSpaceOnUse"><path
         id="path760"
         d="M 0,0 V 3150 H 3150 V 0 Z" /></clipPath><pattern
       id="pattern772"
       height="314.984"
       width="314.984"
       y="0"
       x="0"
       patternUnits="userSpaceOnUse"
       patternTransform="matrix(10,0,0,10,-1407,255)"><g
         id="g770"
         transform="scale(0.1)"><g
           id="g768"><g
             id="g766"
             clip-path="url(#clipPath762)"><path
               id="path764"
               style="fill:#1e2328;fill-opacity:1;fill-rule:nonzero;stroke:none"
               d="M 3149.84,0 0,0 l 0,3149.84 3149.84,0 0,-3149.84" /></g></g></g></pattern><clipPath
       id="clipPath778"
       clipPathUnits="userSpaceOnUse"><path
         id="path776"
         d="M 0,0 V 3150 H 3150 V 0 Z" /></clipPath><pattern
       id="pattern788"
       height="314.984"
       width="314.984"
       y="0"
       x="0"
       patternUnits="userSpaceOnUse"
       patternTransform="matrix(10,0,0,10,-1407,255)"><g
         id="g786"
         transform="scale(0.1)"><g
           id="g784"><g
             id="g782"
             clip-path="url(#clipPath778)"><path
               id="path780"
               style="fill:#1e2328;fill-opacity:1;fill-rule:nonzero;stroke:none"
               d="M 3149.84,0 0,0 l 0,3149.84 3149.84,0 0,-3149.84" /></g></g></g></pattern><clipPath
       id="clipPath794"
       clipPathUnits="userSpaceOnUse"><path
         id="path792"
         d="M 0,0 V 3150 H 3150 V 0 Z" /></clipPath><pattern
       id="pattern804"
       height="314.984"
       width="314.984"
       y="0"
       x="0"
       patternUnits="userSpaceOnUse"
       patternTransform="matrix(10,0,0,10,-1407,255)"><g
         id="g802"
         transform="scale(0.1)"><g
           id="g800"><g
             id="g798"
             clip-path="url(#clipPath794)"><path
               id="path796"
               style="fill:#1e2328;fill-opacity:1;fill-rule:nonzero;stroke:none"
               d="M 3149.84,0 0,0 l 0,3149.84 3149.84,0 0,-3149.84" /></g></g></g></pattern><clipPath
       id="clipPath810"
       clipPathUnits="userSpaceOnUse"><path
         id="path808"
         d="M 0,0 V 3150 H 3150 V 0 Z" /></clipPath><pattern
       id="pattern820"
       height="314.984"
       width="314.984"
       y="0"
       x="0"
       patternUnits="userSpaceOnUse"
       patternTransform="matrix(10,0,0,10,-1407,255)"><g
         id="g818"
         transform="scale(0.1)"><g
           id="g816"><g
             id="g814"
             clip-path="url(#clipPath810)"><path
               id="path812"
               style="fill:#1e2328;fill-opacity:1;fill-rule:nonzero;stroke:none"
               d="M 3149.84,0 0,0 l 0,3149.84 3149.84,0 0,-3149.84" /></g></g></g></pattern><clipPath
       id="clipPath826"
       clipPathUnits="userSpaceOnUse"><path
         id="path824"
         d="M 0,0 V 3150 H 3150 V 0 Z" /></clipPath><pattern
       id="pattern836"
       height="314.984"
       width="314.984"
       y="0"
       x="0"
       patternUnits="userSpaceOnUse"
       patternTransform="matrix(10,0,0,10,-1407,255)"><g
         id="g834"
         transform="scale(0.1)"><g
           id="g832"><g
             id="g830"
             clip-path="url(#clipPath826)"><path
               id="path828"
               style="fill:#1e2328;fill-opacity:1;fill-rule:nonzero;stroke:none"
               d="M 3149.84,0 0,0 l 0,3149.84 3149.84,0 0,-3149.84" /></g></g></g></pattern><clipPath
       id="clipPath842"
       clipPathUnits="userSpaceOnUse"><path
         id="path840"
         d="M 0,0 V 3150 H 3150 V 0 Z" /></clipPath><pattern
       id="pattern852"
       height="314.984"
       width="314.984"
       y="0"
       x="0"
       patternUnits="userSpaceOnUse"
       patternTransform="matrix(10,0,0,10,-1407,255)"><g
         id="g850"
         transform="scale(0.1)"><g
           id="g848"><g
             id="g846"
             clip-path="url(#clipPath842)"><path
               id="path844"
               style="fill:#1e2328;fill-opacity:1;fill-rule:nonzero;stroke:none"
               d="M 3149.84,0 0,0 l 0,3149.84 3149.84,0 0,-3149.84" /></g></g></g></pattern></defs><g
     transform="matrix(1.3333333,0,0,-1.3333333,0,587.98667)"
     id="g10"><g
       transform="scale(0.1)"
       id="g12"><path
         id="path14"
         style="fill:#f0f3fb;fill-opacity:1;fill-rule:nonzero;stroke:none"
         d="M 5099.04,0 H 27.2422 C -86.2617,541.898 154.941,1113.2 750.742,1530.3 1751.64,2230.99 3374.64,2230.99 4375.63,1530.3 4971.44,1113.2 5212.64,541.898 5099.04,0" /><path
         id="path16"
         style="fill:#f0f3fb;fill-opacity:1;fill-rule:nonzero;stroke:none"
         d="m 4117.56,2810.6 -1361.99,784.99 v 46.3 l 1361.99,-784.98 v -46.31" /><path
         id="path18"
         style="fill:#f0f3fb;fill-opacity:1;fill-rule:nonzero;stroke:none"
         d="m 2660.34,3009.44 -1361.98,784.98 v 46.31 l 1361.98,-784.98 v -46.31" /><path
         id="path20"
         style="fill:#f0f3fb;fill-opacity:1;fill-rule:nonzero;stroke:none"
         d="m 4593.82,3521.55 -1459.63,842.06 v 46.31 l 1459.63,-842.05 v -46.32" /><path
         id="path22"
         style="fill:#f0f3fb;fill-opacity:1;fill-rule:nonzero;stroke:none"
         d="m 3653.66,3967.53 -519.47,299.61 v 46.31 l 519.47,-299.6 v -46.32" /><path
         id="path24"
         style="fill:#f0f3fb;fill-opacity:1;fill-rule:nonzero;stroke:none"
         d="m 2436.64,3879.64 -519.48,299.6 v 46.31 l 519.48,-299.6 v -46.31" /><path
         id="path26"
         style="fill:#f0f3fb;fill-opacity:1;fill-rule:nonzero;stroke:none"
         d="m 1637.34,3907.89 -420.92,243.09 v 46.31 l 420.92,-243.09 v -46.31" /><path
         id="path28"
         style="fill:#f0f3fb;fill-opacity:1;fill-rule:nonzero;stroke:none"
         d="m 3853.57,3248.34 -1702.75,983.09 v 46.31 l 1702.75,-983.09 v -46.31" /><path
         id="path30"
         style="fill:#77d2e2;fill-opacity:1;fill-rule:nonzero;stroke:none"
         d="m 3056.74,1929.25 50.31,-1008.289 c 0.38,-7.781 4.51,-14.871 11.07,-19.051 v 0 c 15.89,-10.129 36.74,1.172 36.9,20.031 l 8.59,1000.949 c 0.11,12.18 -8.93,22.51 -21.02,24.02 l -58.91,7.36 c -14.8,1.84 -27.68,-10.12 -26.94,-25.02" /><path
         id="path32"
         style="fill:#a3e1ea;fill-opacity:1;fill-rule:nonzero;stroke:none"
         d="M 3154.65,1946.84 3133.22,911.52 c 0,-20.61 44.83,-15.891 61.51,-3.758 l 3.35,2.437 c 6.16,4.492 9.97,11.52 10.36,19.121 l 50.94,1003.44 c 0.62,12.17 -7.55,23.05 -19.41,25.84 l -54.3,12.8 c -15.84,3.73 -31.02,-8.28 -31.02,-24.56" /><path
         id="path34"
         style="fill:#252f68;fill-opacity:1;fill-rule:nonzero;stroke:none"
         d="m 3672.51,2218.08 36.9,-14 v -44.27 h -36.9 v 58.27" /><path
         id="path36"
         style="fill:#252f68;fill-opacity:1;fill-rule:nonzero;stroke:none"
         d="m 2599.82,1657.08 -1644.914,954.73 949.804,502.5 c 64.5,34.13 142.03,32.6 205.14,-4.02 L 3688.3,2194.12 c 28.94,-16.8 28.12,-58.86 -1.46,-74.51 l -881.88,-466.57 c -64.5,-34.12 -142.03,-32.59 -205.14,4.04" /><path
         id="path38"
         style="fill:#a3e1ea;fill-opacity:1;fill-rule:nonzero;stroke:none"
         d="m 2599.72,1706.53 -1644.911,954.74 949.801,502.5 c 64.5,34.12 142.03,32.6 205.14,-4.03 L 3688.2,2243.57 c 28.94,-16.79 28.11,-58.86 -1.46,-74.51 L 2804.85,1702.5 c -64.49,-34.12 -142.02,-32.6 -205.13,4.03" /><path
         id="path40"
         style="fill:#dbf0fb;fill-opacity:1;fill-rule:nonzero;stroke:none"
         d="m 2692.27,2335.87 -0.07,-21.16 -281.85,-163.79 0.07,21.16 281.85,163.79" /><path
         id="path42"
         style="fill:#dbf0fb;fill-opacity:1;fill-rule:nonzero;stroke:none"
         d="m 2410.42,2172.08 -0.07,-21.16 -623.84,360.17 0.07,21.16 623.84,-360.17" /><path
         id="path44"
         style="fill:#f2fbfd;fill-opacity:1;fill-rule:nonzero;stroke:none"
         d="m 2692.27,2335.87 -281.85,-163.79 -623.84,360.17 281.85,163.79 623.84,-360.17" /><path
         id="path46"
         style="fill:#dbf0fb;fill-opacity:1;fill-rule:nonzero;stroke:none"
         d="m 2106.53,2654.82 -0.04,-12.4 -38.99,-22.67 0.03,12.41 39,22.66" /><path
         id="path48"
         style="fill:#dbf0fb;fill-opacity:1;fill-rule:nonzero;stroke:none"
         d="m 2067.53,2632.16 -0.03,-12.41 -38.47,22.21 0.03,12.41 38.47,-22.21" /><path
         id="path50"
         style="fill:#ffffff;fill-opacity:1;fill-rule:nonzero;stroke:none"
         d="m 2106.53,2654.82 -39,-22.66 -38.47,22.21 39,22.66 38.47,-22.21" /><path
         id="path52"
         style="fill:#dbf0fb;fill-opacity:1;fill-rule:nonzero;stroke:none"
         d="m 2155.88,2626.32 -0.03,-12.4 -38.99,-22.67 0.03,12.41 38.99,22.66" /><path
         id="path54"
         style="fill:#dbf0fb;fill-opacity:1;fill-rule:nonzero;stroke:none"
         d="m 2116.89,2603.66 -0.03,-12.41 -38.48,22.22 0.04,12.4 38.47,-22.21" /><path
         id="path56"
         style="fill:#ffffff;fill-opacity:1;fill-rule:nonzero;stroke:none"
         d="m 2155.88,2626.32 -38.99,-22.66 -38.47,22.21 38.99,22.66 38.47,-22.21" /><path
         id="path58"
         style="fill:#dbf0fb;fill-opacity:1;fill-rule:nonzero;stroke:none"
         d="m 2205.14,2597.88 -0.03,-12.4 -39,-22.66 0.04,12.4 38.99,22.66" /><path
         id="path60"
         style="fill:#dbf0fb;fill-opacity:1;fill-rule:nonzero;stroke:none"
         d="m 2166.15,2575.22 -0.04,-12.4 -38.47,22.21 0.03,12.4 38.48,-22.21" /><path
         id="path62"
         style="fill:#ffffff;fill-opacity:1;fill-rule:nonzero;stroke:none"
         d="m 2205.14,2597.88 -38.99,-22.66 -38.48,22.21 39,22.67 38.47,-22.22" /><path
         id="path64"
         style="fill:#dbf0fb;fill-opacity:1;fill-rule:nonzero;stroke:none"
         d="m 2254.4,2569.45 -0.03,-12.41 -39,-22.66 0.04,12.4 38.99,22.67" /><path
         id="path66"
         style="fill:#dbf0fb;fill-opacity:1;fill-rule:nonzero;stroke:none"
         d="m 2215.41,2546.78 -0.04,-12.4 -38.47,22.21 0.03,12.41 38.48,-22.22" /><path
         id="path68"
         style="fill:#ffffff;fill-opacity:1;fill-rule:nonzero;stroke:none"
         d="m 2254.4,2569.45 -38.99,-22.67 -38.48,22.22 39,22.66 38.47,-22.21" /><path
         id="path70"
         style="fill:#dbf0fb;fill-opacity:1;fill-rule:nonzero;stroke:none"
         d="m 2303.75,2540.95 -0.03,-12.41 -38.99,-22.66 0.03,12.4 38.99,22.67" /><path
         id="path72"
         style="fill:#dbf0fb;fill-opacity:1;fill-rule:nonzero;stroke:none"
         d="m 2264.76,2518.28 -0.03,-12.4 -38.48,22.22 0.03,12.4 38.48,-22.22" /><path
         id="path74"
         style="fill:#ffffff;fill-opacity:1;fill-rule:nonzero;stroke:none"
         d="m 2303.75,2540.95 -38.99,-22.67 -38.48,22.22 39,22.66 38.47,-22.21" /><path
         id="path76"
         style="fill:#dbf0fb;fill-opacity:1;fill-rule:nonzero;stroke:none"
         d="m 2353.02,2512.51 -0.04,-12.4 -39,-22.67 0.04,12.41 39,22.66" /><path
         id="path78"
         style="fill:#dbf0fb;fill-opacity:1;fill-rule:nonzero;stroke:none"
         d="m 2314.02,2489.85 -0.04,-12.41 -38.47,22.22 0.04,12.4 38.47,-22.21" /><path
         id="path80"
         style="fill:#ffffff;fill-opacity:1;fill-rule:nonzero;stroke:none"
         d="m 2353.02,2512.51 -39,-22.66 -38.47,22.21 38.99,22.66 38.48,-22.21" /><path
         id="path82"
         style="fill:#dbf0fb;fill-opacity:1;fill-rule:nonzero;stroke:none"
         d="m 2402.27,2484.07 -0.03,-12.4 -39,-22.67 0.04,12.4 38.99,22.67" /><path
         id="path84"
         style="fill:#dbf0fb;fill-opacity:1;fill-rule:nonzero;stroke:none"
         d="m 2363.28,2461.4 -0.04,-12.4 -38.47,22.22 0.03,12.4 38.48,-22.22" /><path
         id="path86"
         style="fill:#ffffff;fill-opacity:1;fill-rule:nonzero;stroke:none"
         d="m 2402.27,2484.07 -38.99,-22.67 -38.48,22.22 39,22.66 38.47,-22.21" /><path
         id="path88"
         style="fill:#dbf0fb;fill-opacity:1;fill-rule:nonzero;stroke:none"
         d="m 2451.63,2455.57 -0.04,-12.4 -38.99,-22.66 0.03,12.4 39,22.66" /><path
         id="path90"
         style="fill:#dbf0fb;fill-opacity:1;fill-rule:nonzero;stroke:none"
         d="m 2412.63,2432.91 -0.03,-12.4 -38.58,22.27 0.04,12.4 38.57,-22.27" /><path
         id="path92"
         style="fill:#ffffff;fill-opacity:1;fill-rule:nonzero;stroke:none"
         d="m 2451.63,2455.57 -39,-22.66 -38.57,22.27 39,22.66 38.57,-22.27" /><path
         id="path94"
         style="fill:#dbf0fb;fill-opacity:1;fill-rule:nonzero;stroke:none"
         d="m 2500.88,2427.14 -0.03,-12.41 -38.99,-22.66 0.03,12.4 38.99,22.67" /><path
         id="path96"
         style="fill:#dbf0fb;fill-opacity:1;fill-rule:nonzero;stroke:none"
         d="m 2461.89,2404.47 -0.03,-12.4 -38.48,22.22 0.04,12.4 38.47,-22.22" /><path
         id="path98"
         style="fill:#ffffff;fill-opacity:1;fill-rule:nonzero;stroke:none"
         d="m 2500.88,2427.14 -38.99,-22.67 -38.47,22.22 38.99,22.65 38.47,-22.2" /><path
         id="path100"
         style="fill:#dbf0fb;fill-opacity:1;fill-rule:nonzero;stroke:none"
         d="m 2550.15,2398.7 -0.04,-12.41 -39,-22.66 0.04,12.4 39,22.67" /><path
         id="path102"
         style="fill:#dbf0fb;fill-opacity:1;fill-rule:nonzero;stroke:none"
         d="m 2511.15,2376.03 -0.04,-12.4 -38.47,22.22 0.03,12.4 38.48,-22.22" /><path
         id="path104"
         style="fill:#ffffff;fill-opacity:1;fill-rule:nonzero;stroke:none"
         d="m 2550.15,2398.7 -39,-22.67 -38.48,22.22 39,22.66 38.48,-22.21" /><path
         id="path106"
         style="fill:#dbf0fb;fill-opacity:1;fill-rule:nonzero;stroke:none"
         d="m 2648.76,2341.77 -0.04,-12.42 -38.99,-22.65 0.03,12.4 39,22.67" /><path
         id="path108"
         style="fill:#dbf0fb;fill-opacity:1;fill-rule:nonzero;stroke:none"
         d="m 2609.76,2319.1 -0.03,-12.4 -87.84,50.7 0.04,12.41 87.83,-50.71" /><path
         id="path110"
         style="fill:#ffffff;fill-opacity:1;fill-rule:nonzero;stroke:none"
         d="m 2648.76,2341.77 -39,-22.67 -87.83,50.71 39,22.66 87.83,-50.7" /><path
         id="path112"
         style="fill:#dbf0fb;fill-opacity:1;fill-rule:nonzero;stroke:none"
         d="m 2106.18,2597.43 -0.04,-12.4 -38.99,-22.66 0.03,12.4 39,22.66" /><path
         id="path114"
         style="fill:#dbf0fb;fill-opacity:1;fill-rule:nonzero;stroke:none"
         d="m 2067.18,2574.77 -0.03,-12.4 -87.83,50.7 0.03,12.41 87.83,-50.71" /><path
         id="path116"
         style="fill:#ffffff;fill-opacity:1;fill-rule:nonzero;stroke:none"
         d="m 2106.18,2597.43 -39,-22.66 -87.83,50.71 39,22.66 87.83,-50.71" /><path
         id="path118"
         style="fill:#dbf0fb;fill-opacity:1;fill-rule:nonzero;stroke:none"
         d="m 2155.43,2568.99 -0.03,-12.4 -39,-22.66 0.04,12.4 38.99,22.66" /><path
         id="path120"
         style="fill:#dbf0fb;fill-opacity:1;fill-rule:nonzero;stroke:none"
         d="m 2116.44,2546.33 -0.04,-12.4 -38.47,22.21 0.03,12.4 38.48,-22.21" /><path
         id="path122"
         style="fill:#ffffff;fill-opacity:1;fill-rule:nonzero;stroke:none"
         d="m 2155.43,2568.99 -38.99,-22.66 -38.48,22.21 39,22.66 38.47,-22.21" /><path
         id="path124"
         style="fill:#dbf0fb;fill-opacity:1;fill-rule:nonzero;stroke:none"
         d="m 2204.69,2540.55 -0.03,-12.4 -39,-22.66 0.04,12.4 38.99,22.66" /><path
         id="path126"
         style="fill:#dbf0fb;fill-opacity:1;fill-rule:nonzero;stroke:none"
         d="m 2165.7,2517.89 -0.04,-12.4 -38.47,22.21 0.03,12.41 38.48,-22.22" /><path
         id="path128"
         style="fill:#ffffff;fill-opacity:1;fill-rule:nonzero;stroke:none"
         d="m 2204.69,2540.55 -38.99,-22.66 -38.48,22.22 39,22.66 38.47,-22.22" /><path
         id="path130"
         style="fill:#dbf0fb;fill-opacity:1;fill-rule:nonzero;stroke:none"
         d="m 2254.05,2512.06 -0.04,-12.4 -39,-22.67 0.04,12.41 39,22.66" /><path
         id="path132"
         style="fill:#dbf0fb;fill-opacity:1;fill-rule:nonzero;stroke:none"
         d="m 2215.05,2489.4 -0.04,-12.41 -38.47,22.22 0.04,12.4 38.47,-22.21" /><path
         id="path134"
         style="fill:#ffffff;fill-opacity:1;fill-rule:nonzero;stroke:none"
         d="m 2254.05,2512.06 -39,-22.66 -38.47,22.21 39,22.67 38.47,-22.22" /><path
         id="path136"
         style="fill:#dbf0fb;fill-opacity:1;fill-rule:nonzero;stroke:none"
         d="m 2303.31,2483.62 -0.04,-12.4 -39,-22.67 0.04,12.41 39,22.66" /><path
         id="path138"
         style="fill:#dbf0fb;fill-opacity:1;fill-rule:nonzero;stroke:none"
         d="m 2264.31,2460.96 -0.04,-12.41 -38.47,22.22 0.03,12.4 38.48,-22.21" /><path
         id="path140"
         style="fill:#ffffff;fill-opacity:1;fill-rule:nonzero;stroke:none"
         d="m 2303.31,2483.62 -39,-22.66 -38.48,22.21 39,22.66 38.48,-22.21" /><path
         id="path142"
         style="fill:#dbf0fb;fill-opacity:1;fill-rule:nonzero;stroke:none"
         d="m 2352.56,2455.18 -0.03,-12.4 -39,-22.66 0.03,12.4 39,22.66" /><path
         id="path144"
         style="fill:#dbf0fb;fill-opacity:1;fill-rule:nonzero;stroke:none"
         d="m 2313.56,2432.52 -0.03,-12.4 -38.47,22.21 0.03,12.4 38.47,-22.21" /><path
         id="path146"
         style="fill:#ffffff;fill-opacity:1;fill-rule:nonzero;stroke:none"
         d="m 2352.56,2455.18 -39,-22.66 -38.47,22.21 39,22.66 38.47,-22.21" /><path
         id="path148"
         style="fill:#dbf0fb;fill-opacity:1;fill-rule:nonzero;stroke:none"
         d="m 2401.91,2426.69 -0.03,-12.4 -38.99,-22.67 0.03,12.4 38.99,22.67" /><path
         id="path150"
         style="fill:#dbf0fb;fill-opacity:1;fill-rule:nonzero;stroke:none"
         d="m 2362.92,2404.02 -0.03,-12.4 -38.57,22.27 0.03,12.41 38.57,-22.28" /><path
         id="path152"
         style="fill:#ffffff;fill-opacity:1;fill-rule:nonzero;stroke:none"
         d="m 2401.91,2426.69 -38.99,-22.67 -38.57,22.28 39,22.65 38.56,-22.26" /><path
         id="path154"
         style="fill:#dbf0fb;fill-opacity:1;fill-rule:nonzero;stroke:none"
         d="m 2451.18,2398.25 -0.04,-12.4 -39,-22.67 0.04,12.4 39,22.67" /><path
         id="path156"
         style="fill:#dbf0fb;fill-opacity:1;fill-rule:nonzero;stroke:none"
         d="m 2412.18,2375.58 -0.04,-12.4 -38.47,22.22 0.04,12.4 38.47,-22.22" /><path
         id="path158"
         style="fill:#ffffff;fill-opacity:1;fill-rule:nonzero;stroke:none"
         d="m 2451.18,2398.25 -39,-22.67 -38.47,22.22 38.99,22.66 38.48,-22.21" /><path
         id="path160"
         style="fill:#dbf0fb;fill-opacity:1;fill-rule:nonzero;stroke:none"
         d="m 2500.43,2369.81 -0.03,-12.41 -39,-22.66 0.04,12.41 38.99,22.66" /><path
         id="path162"
         style="fill:#dbf0fb;fill-opacity:1;fill-rule:nonzero;stroke:none"
         d="m 2461.44,2347.15 -0.04,-12.41 -38.47,22.21 0.03,12.41 38.48,-22.21" /><path
         id="path164"
         style="fill:#ffffff;fill-opacity:1;fill-rule:nonzero;stroke:none"
         d="m 2500.43,2369.81 -38.99,-22.66 -38.48,22.21 39,22.66 38.47,-22.21" /><path
         id="path166"
         style="fill:#dbf0fb;fill-opacity:1;fill-rule:nonzero;stroke:none"
         d="m 2549.79,2341.32 -0.03,-12.41 -39,-22.66 0.03,12.4 39,22.67" /><path
         id="path168"
         style="fill:#dbf0fb;fill-opacity:1;fill-rule:nonzero;stroke:none"
         d="m 2510.79,2318.65 -0.03,-12.4 -38.57,22.26 0.03,12.41 38.57,-22.27" /><path
         id="path170"
         style="fill:#ffffff;fill-opacity:1;fill-rule:nonzero;stroke:none"
         d="m 2549.79,2341.32 -39,-22.67 -38.57,22.27 39,22.66 38.57,-22.26" /><path
         id="path172"
         style="fill:#dbf0fb;fill-opacity:1;fill-rule:nonzero;stroke:none"
         d="m 2599.05,2312.87 -0.04,-12.4 -39,-22.66 0.04,12.4 39,22.66" /><path
         id="path174"
         style="fill:#dbf0fb;fill-opacity:1;fill-rule:nonzero;stroke:none"
         d="m 2560.05,2290.21 -0.04,-12.4 -38.47,22.21 0.04,12.41 38.47,-22.22" /><path
         id="path176"
         style="fill:#ffffff;fill-opacity:1;fill-rule:nonzero;stroke:none"
         d="m 2599.05,2312.87 -39,-22.66 -38.47,22.22 39,22.66 38.47,-22.22" /><path
         id="path178"
         style="fill:#dbf0fb;fill-opacity:1;fill-rule:nonzero;stroke:none"
         d="m 2056.46,2568.54 -0.03,-12.4 -38.99,-22.66 0.03,12.4 38.99,22.66" /><path
         id="path180"
         style="fill:#dbf0fb;fill-opacity:1;fill-rule:nonzero;stroke:none"
         d="m 2017.47,2545.88 -0.03,-12.4 -87.84,50.71 0.04,12.4 87.83,-50.71" /><path
         id="path182"
         style="fill:#ffffff;fill-opacity:1;fill-rule:nonzero;stroke:none"
         d="m 2056.46,2568.54 -38.99,-22.66 -87.83,50.71 39,22.67 87.82,-50.72" /><path
         id="path184"
         style="fill:#dbf0fb;fill-opacity:1;fill-rule:nonzero;stroke:none"
         d="m 2105.72,2540.11 -0.03,-12.41 -39,-22.66 0.04,12.4 38.99,22.67" /><path
         id="path186"
         style="fill:#dbf0fb;fill-opacity:1;fill-rule:nonzero;stroke:none"
         d="m 2066.73,2517.44 -0.04,-12.4 -38.47,22.21 0.04,12.41 38.47,-22.22" /><path
         id="path188"
         style="fill:#ffffff;fill-opacity:1;fill-rule:nonzero;stroke:none"
         d="m 2105.72,2540.11 -38.99,-22.67 -38.47,22.22 38.99,22.66 38.47,-22.21" /><path
         id="path190"
         style="fill:#dbf0fb;fill-opacity:1;fill-rule:nonzero;stroke:none"
         d="m 2154.98,2511.67 -0.03,-12.41 -39,-22.66 0.04,12.4 38.99,22.67" /><path
         id="path192"
         style="fill:#dbf0fb;fill-opacity:1;fill-rule:nonzero;stroke:none"
         d="m 2115.99,2489 -0.04,-12.4 -38.47,22.21 0.03,12.41 38.48,-22.22" /><path
         id="path194"
         style="fill:#ffffff;fill-opacity:1;fill-rule:nonzero;stroke:none"
         d="m 2154.98,2511.67 -38.99,-22.67 -38.48,22.22 39,22.66 38.47,-22.21" /><path
         id="path196"
         style="fill:#dbf0fb;fill-opacity:1;fill-rule:nonzero;stroke:none"
         d="m 2204.34,2483.17 -0.04,-12.4 -38.99,-22.67 0.03,12.41 39,22.66" /><path
         id="path198"
         style="fill:#dbf0fb;fill-opacity:1;fill-rule:nonzero;stroke:none"
         d="m 2165.34,2460.51 -0.03,-12.41 -38.48,22.22 0.04,12.4 38.47,-22.21" /><path
         id="path200"
         style="fill:#ffffff;fill-opacity:1;fill-rule:nonzero;stroke:none"
         d="m 2204.34,2483.17 -39,-22.66 -38.47,22.21 38.99,22.66 38.48,-22.21" /><path
         id="path202"
         style="fill:#dbf0fb;fill-opacity:1;fill-rule:nonzero;stroke:none"
         d="m 2253.59,2454.73 -0.03,-12.4 -38.99,-22.66 0.03,12.4 38.99,22.66" /><path
         id="path204"
         style="fill:#dbf0fb;fill-opacity:1;fill-rule:nonzero;stroke:none"
         d="m 2214.6,2432.07 -0.03,-12.4 -38.48,22.2 0.04,12.42 38.47,-22.22" /><path
         id="path206"
         style="fill:#ffffff;fill-opacity:1;fill-rule:nonzero;stroke:none"
         d="m 2253.59,2454.73 -38.99,-22.66 -38.47,22.22 38.99,22.65 38.47,-22.21" /><path
         id="path208"
         style="fill:#dbf0fb;fill-opacity:1;fill-rule:nonzero;stroke:none"
         d="m 2302.85,2426.3 -0.03,-12.41 -39,-22.66 0.04,12.4 38.99,22.67" /><path
         id="path210"
         style="fill:#dbf0fb;fill-opacity:1;fill-rule:nonzero;stroke:none"
         d="m 2263.86,2403.63 -0.04,-12.4 -38.47,22.21 0.03,12.41 38.48,-22.22" /><path
         id="path212"
         style="fill:#ffffff;fill-opacity:1;fill-rule:nonzero;stroke:none"
         d="m 2302.85,2426.3 -38.99,-22.67 -38.48,22.22 39,22.65 38.47,-22.2" /><path
         id="path214"
         style="fill:#dbf0fb;fill-opacity:1;fill-rule:nonzero;stroke:none"
         d="m 2352.21,2397.8 -0.04,-12.4 -38.99,-22.67 0.03,12.4 39,22.67" /><path
         id="path216"
         style="fill:#dbf0fb;fill-opacity:1;fill-rule:nonzero;stroke:none"
         d="m 2313.21,2375.13 -0.03,-12.4 -38.58,22.27 0.04,12.41 38.57,-22.28" /><path
         id="path218"
         style="fill:#ffffff;fill-opacity:1;fill-rule:nonzero;stroke:none"
         d="m 2352.21,2397.8 -39,-22.67 -38.57,22.28 39,22.66 38.57,-22.27" /><path
         id="path220"
         style="fill:#dbf0fb;fill-opacity:1;fill-rule:nonzero;stroke:none"
         d="m 2401.46,2369.36 -0.03,-12.41 -38.99,-22.66 0.03,12.41 38.99,22.66" /><path
         id="path222"
         style="fill:#dbf0fb;fill-opacity:1;fill-rule:nonzero;stroke:none"
         d="m 2362.47,2346.7 -0.03,-12.41 -38.48,22.21 0.03,12.41 38.48,-22.21" /><path
         id="path224"
         style="fill:#ffffff;fill-opacity:1;fill-rule:nonzero;stroke:none"
         d="m 2401.46,2369.36 -38.99,-22.66 -38.48,22.21 39,22.66 38.47,-22.21" /><path
         id="path226"
         style="fill:#dbf0fb;fill-opacity:1;fill-rule:nonzero;stroke:none"
         d="m 2450.72,2340.92 -0.03,-12.41 -39,-22.65 0.04,12.4 38.99,22.66" /><path
         id="path228"
         style="fill:#dbf0fb;fill-opacity:1;fill-rule:nonzero;stroke:none"
         d="m 2411.73,2318.26 -0.04,-12.4 -38.47,22.2 0.03,12.42 38.48,-22.22" /><path
         id="path230"
         style="fill:#ffffff;fill-opacity:1;fill-rule:nonzero;stroke:none"
         d="m 2450.72,2340.92 -38.99,-22.66 -38.48,22.22 39,22.65 38.47,-22.21" /><path
         id="path232"
         style="fill:#dbf0fb;fill-opacity:1;fill-rule:nonzero;stroke:none"
         d="m 2549.34,2283.98 -0.04,-12.4 -38.99,-22.66 0.03,12.41 39,22.65" /><path
         id="path234"
         style="fill:#dbf0fb;fill-opacity:1;fill-rule:nonzero;stroke:none"
         d="m 2510.34,2261.33 -0.03,-12.41 -87.83,50.71 0.03,12.4 87.83,-50.7" /><path
         id="path236"
         style="fill:#ffffff;fill-opacity:1;fill-rule:nonzero;stroke:none"
         d="m 2549.34,2283.98 -39,-22.65 -87.83,50.7 39,22.67 87.83,-50.72" /><path
         id="path238"
         style="fill:#dbf0fb;fill-opacity:1;fill-rule:nonzero;stroke:none"
         d="m 2055.92,2511.16 -0.04,-12.4 -39,-22.67 0.04,12.41 39,22.66" /><path
         id="path240"
         style="fill:#dbf0fb;fill-opacity:1;fill-rule:nonzero;stroke:none"
         d="m 2016.92,2488.5 -0.04,-12.41 -137.08,79.15 0.03,12.41 137.09,-79.15" /><path
         id="path242"
         style="fill:#ffffff;fill-opacity:1;fill-rule:nonzero;stroke:none"
         d="m 2055.92,2511.16 -39,-22.66 -137.09,79.15 39,22.66 137.09,-79.15" /><path
         id="path244"
         style="fill:#dbf0fb;fill-opacity:1;fill-rule:nonzero;stroke:none"
         d="m 2105.18,2482.72 -0.04,-12.4 -39,-22.67 0.04,12.42 39,22.65" /><path
         id="path246"
         style="fill:#dbf0fb;fill-opacity:1;fill-rule:nonzero;stroke:none"
         d="m 2066.18,2460.07 -0.04,-12.42 -38.47,22.22 0.04,12.4 38.47,-22.2" /><path
         id="path248"
         style="fill:#ffffff;fill-opacity:1;fill-rule:nonzero;stroke:none"
         d="m 2105.18,2482.72 -39,-22.65 -38.47,22.2 38.99,22.66 38.48,-22.21" /><path
         id="path250"
         style="fill:#dbf0fb;fill-opacity:1;fill-rule:nonzero;stroke:none"
         d="m 2154.53,2454.23 -0.03,-12.41 -39,-22.66 0.04,12.4 38.99,22.67" /><path
         id="path252"
         style="fill:#dbf0fb;fill-opacity:1;fill-rule:nonzero;stroke:none"
         d="m 2115.54,2431.56 -0.04,-12.4 -38.47,22.22 0.03,12.4 38.48,-22.22" /><path
         id="path254"
         style="fill:#ffffff;fill-opacity:1;fill-rule:nonzero;stroke:none"
         d="m 2154.53,2454.23 -38.99,-22.67 -38.48,22.22 38.99,22.66 38.48,-22.21" /><path
         id="path256"
         style="fill:#dbf0fb;fill-opacity:1;fill-rule:nonzero;stroke:none"
         d="m 2203.78,2425.79 -0.03,-12.4 -38.99,-22.67 0.03,12.4 38.99,22.67" /><path
         id="path258"
         style="fill:#dbf0fb;fill-opacity:1;fill-rule:nonzero;stroke:none"
         d="m 2164.79,2403.12 -0.03,-12.4 -38.48,22.22 0.04,12.4 38.47,-22.22" /><path
         id="path260"
         style="fill:#ffffff;fill-opacity:1;fill-rule:nonzero;stroke:none"
         d="m 2203.78,2425.79 -38.99,-22.67 -38.47,22.22 39,22.66 38.46,-22.21" /><path
         id="path262"
         style="fill:#dbf0fb;fill-opacity:1;fill-rule:nonzero;stroke:none"
         d="m 2253.05,2397.35 -0.04,-12.41 -39,-22.66 0.04,12.41 39,22.66" /><path
         id="path264"
         style="fill:#dbf0fb;fill-opacity:1;fill-rule:nonzero;stroke:none"
         d="m 2214.05,2374.69 -0.04,-12.41 -38.47,22.22 0.04,12.4 38.47,-22.21" /><path
         id="path266"
         style="fill:#ffffff;fill-opacity:1;fill-rule:nonzero;stroke:none"
         d="m 2253.05,2397.35 -39,-22.66 -38.47,22.21 38.99,22.66 38.48,-22.21" /><path
         id="path268"
         style="fill:#dbf0fb;fill-opacity:1;fill-rule:nonzero;stroke:none"
         d="m 2302.4,2368.86 -0.03,-12.41 -39,-22.66 0.03,12.4 39,22.67" /><path
         id="path270"
         style="fill:#dbf0fb;fill-opacity:1;fill-rule:nonzero;stroke:none"
         d="m 2263.4,2346.19 -0.03,-12.4 -38.57,22.26 0.03,12.41 38.57,-22.27" /><path
         id="path272"
         style="fill:#ffffff;fill-opacity:1;fill-rule:nonzero;stroke:none"
         d="m 2302.4,2368.86 -39,-22.67 -38.57,22.27 39,22.66 38.57,-22.26" /><path
         id="path274"
         style="fill:#dbf0fb;fill-opacity:1;fill-rule:nonzero;stroke:none"
         d="m 2351.66,2340.42 -0.03,-12.4 -39,-22.67 0.04,12.4 38.99,22.67" /><path
         id="path276"
         style="fill:#dbf0fb;fill-opacity:1;fill-rule:nonzero;stroke:none"
         d="m 2312.67,2317.75 -0.04,-12.4 -38.47,22.21 0.03,12.41 38.48,-22.22" /><path
         id="path278"
         style="fill:#ffffff;fill-opacity:1;fill-rule:nonzero;stroke:none"
         d="m 2351.66,2340.42 -38.99,-22.67 -38.48,22.22 38.99,22.66 38.48,-22.21" /><path
         id="path280"
         style="fill:#dbf0fb;fill-opacity:1;fill-rule:nonzero;stroke:none"
         d="m 2400.92,2311.97 -0.04,-12.4 -39,-22.66 0.04,12.4 39,22.66" /><path
         id="path282"
         style="fill:#dbf0fb;fill-opacity:1;fill-rule:nonzero;stroke:none"
         d="m 2361.92,2289.31 -0.04,-12.4 -38.47,22.21 0.04,12.4 38.47,-22.21" /><path
         id="path284"
         style="fill:#ffffff;fill-opacity:1;fill-rule:nonzero;stroke:none"
         d="m 2400.92,2311.97 -39,-22.66 -38.47,22.21 39,22.67 38.47,-22.22" /><path
         id="path286"
         style="fill:#dbf0fb;fill-opacity:1;fill-rule:nonzero;stroke:none"
         d="m 2499.53,2255.04 -0.03,-12.41 -39,-22.65 0.03,12.4 39,22.66" /><path
         id="path288"
         style="fill:#dbf0fb;fill-opacity:1;fill-rule:nonzero;stroke:none"
         d="m 2460.53,2232.38 -0.03,-12.4 -87.83,50.7 0.04,12.4 87.82,-50.7" /><path
         id="path290"
         style="fill:#ffffff;fill-opacity:1;fill-rule:nonzero;stroke:none"
         d="m 2499.53,2255.04 -39,-22.66 -87.82,50.7 38.99,22.67 87.83,-50.71" /><path
         id="path292"
         style="fill:#dbf0fb;fill-opacity:1;fill-rule:nonzero;stroke:none"
         d="m 1907.59,2539.21 -0.03,-12.41 -39,-22.66 0.04,12.41 38.99,22.66" /><path
         id="path294"
         style="fill:#dbf0fb;fill-opacity:1;fill-rule:nonzero;stroke:none"
         d="m 1868.6,2516.55 -0.04,-12.41 -38.47,22.22 0.04,12.4 38.47,-22.21" /><path
         id="path296"
         style="fill:#ffffff;fill-opacity:1;fill-rule:nonzero;stroke:none"
         d="m 1907.59,2539.21 -38.99,-22.66 -38.47,22.21 38.99,22.66 38.47,-22.21" /><path
         id="path298"
         style="fill:#dbf0fb;fill-opacity:1;fill-rule:nonzero;stroke:none"
         d="m 1956.95,2510.71 -0.04,-12.4 -38.99,-22.67 0.03,12.41 39,22.66" /><path
         id="path300"
         style="fill:#dbf0fb;fill-opacity:1;fill-rule:nonzero;stroke:none"
         d="m 1917.95,2488.05 -0.03,-12.41 -38.48,22.22 0.04,12.4 38.47,-22.21" /><path
         id="path302"
         style="fill:#ffffff;fill-opacity:1;fill-rule:nonzero;stroke:none"
         d="m 1956.95,2510.71 -39,-22.66 -38.47,22.21 39,22.66 38.47,-22.21" /><path
         id="path304"
         style="fill:#dbf0fb;fill-opacity:1;fill-rule:nonzero;stroke:none"
         d="m 2006.21,2482.27 -0.04,-12.4 -38.99,-22.66 0.03,12.4 39,22.66" /><path
         id="path306"
         style="fill:#dbf0fb;fill-opacity:1;fill-rule:nonzero;stroke:none"
         d="m 1967.21,2459.61 -0.03,-12.4 -38.48,22.21 0.04,12.4 38.47,-22.21" /><path
         id="path308"
         style="fill:#ffffff;fill-opacity:1;fill-rule:nonzero;stroke:none"
         d="m 2006.21,2482.27 -39,-22.66 -38.47,22.21 38.99,22.67 38.48,-22.22" /><path
         id="path310"
         style="fill:#dbf0fb;fill-opacity:1;fill-rule:nonzero;stroke:none"
         d="m 2252.69,2339.97 -0.03,-12.41 -39,-22.66 0.04,12.4 38.99,22.67" /><path
         id="path312"
         style="fill:#dbf0fb;fill-opacity:1;fill-rule:nonzero;stroke:none"
         d="m 2213.7,2317.3 -0.04,-12.4 -235.7,136.08 0.03,12.41 235.71,-136.09" /><path
         id="path314"
         style="fill:#ffffff;fill-opacity:1;fill-rule:nonzero;stroke:none"
         d="m 2252.69,2339.97 -38.99,-22.67 -235.71,136.09 39,22.65 235.7,-136.07" /><path
         id="path316"
         style="fill:#dbf0fb;fill-opacity:1;fill-rule:nonzero;stroke:none"
         d="m 2301.95,2311.52 -0.04,-12.4 -38.99,-22.66 0.03,12.41 39,22.65" /><path
         id="path318"
         style="fill:#dbf0fb;fill-opacity:1;fill-rule:nonzero;stroke:none"
         d="m 2262.95,2288.87 -0.03,-12.41 -38.48,22.21 0.04,12.41 38.47,-22.21" /><path
         id="path320"
         style="fill:#ffffff;fill-opacity:1;fill-rule:nonzero;stroke:none"
         d="m 2301.95,2311.52 -39,-22.65 -38.47,22.21 39,22.66 38.47,-22.22" /><path
         id="path322"
         style="fill:#dbf0fb;fill-opacity:1;fill-rule:nonzero;stroke:none"
         d="m 2351.21,2283.08 -0.04,-12.4 -38.99,-22.65 0.03,12.4 39,22.65" /><path
         id="path324"
         style="fill:#dbf0fb;fill-opacity:1;fill-rule:nonzero;stroke:none"
         d="m 2312.21,2260.43 -0.03,-12.4 -38.48,22.2 0.04,12.4 38.47,-22.2" /><path
         id="path326"
         style="fill:#ffffff;fill-opacity:1;fill-rule:nonzero;stroke:none"
         d="m 2351.21,2283.08 -39,-22.65 -38.47,22.2 38.99,22.67 38.48,-22.22" /><path
         id="path328"
         style="fill:#dbf0fb;fill-opacity:1;fill-rule:nonzero;stroke:none"
         d="m 2449.82,2226.15 -0.03,-12.4 -39,-22.66 0.04,12.4 38.99,22.66" /><path
         id="path330"
         style="fill:#dbf0fb;fill-opacity:1;fill-rule:nonzero;stroke:none"
         d="m 2410.83,2203.49 -0.04,-12.4 -87.83,50.7 0.03,12.41 87.84,-50.71" /><path
         id="path332"
         style="fill:#ffffff;fill-opacity:1;fill-rule:nonzero;stroke:none"
         d="m 2449.82,2226.15 -38.99,-22.66 -87.84,50.71 39,22.66 87.83,-50.71" /><path
         id="path334"
         style="fill:#77d2e2;fill-opacity:1;fill-rule:nonzero;stroke:none"
         d="m 2927.92,2001.22 c -51.96,-30 -136.21,-30 -188.18,0 -51.97,30 -51.97,78.65 0,108.65 51.96,30 136.22,30 188.18,0 51.97,-30.01 51.97,-78.65 0,-108.65" /><path
         id="path336"
         style="fill:#77d2e2;fill-opacity:1;fill-rule:nonzero;stroke:none"
         d="m 2966.89,2055.54 h -266.12 v 222.5 h 266.12 v -222.5" /><path
         id="path338"
         style="fill:#ffffff;fill-opacity:1;fill-rule:nonzero;stroke:none"
         d="m 2927.93,2223.71 c -51.96,-30 -136.22,-30 -188.18,0 -51.98,30 -51.98,78.64 0,108.65 51.96,30 136.21,30 188.18,-0.01 51.96,-30 51.96,-78.64 0,-108.64" /><path
         id="path340"
         style="fill:#ededed;fill-opacity:1;fill-rule:nonzero;stroke:none"
         d="m 2935.04,2261.5 c -5.2,-7.21 -13.4,-14 -24.7,-19.8 -41.4,-21.2 -108.4,-21.2 -149.8,0 -11.3,5.8 -19.5,12.59 -24.6,19.8 -13.7,19.2 -5.5,41.59 24.6,56.99 41.4,21.21 108.4,21.21 149.8,0 30.1,-15.4 38.3,-37.79 24.7,-56.99" /><path
         id="path342"
         style="fill:#4d3c32;fill-opacity:1;fill-rule:nonzero;stroke:none"
         d="m 2935.04,2261.5 c -5.2,-7.21 -13.4,-14 -24.7,-19.8 -41.4,-21.2 -108.4,-21.2 -149.8,0 -11.3,5.8 -19.5,12.59 -24.6,19.8 5.1,7.2 13.3,14 24.6,19.8 41.4,21.2 108.4,21.2 149.8,0 11.3,-5.8 19.5,-12.6 24.7,-19.8" /><path
         id="path344"
         style="fill:#ffffff;fill-opacity:1;fill-rule:nonzero;stroke:none"
         d="m 1840.37,2672.55 -324.56,187.38 459.01,265.01 324.56,-187.38 -459.01,-265.01" /><path
         id="path346"
         style="fill:#4859b1;fill-opacity:1;fill-rule:nonzero;stroke:none"
         d="m 1846.89,2736.02 -293.07,169.2 414.48,239.3 293.07,-169.2 -414.48,-239.3" /><path
         id="path348"
         style="fill:#ffffff;fill-opacity:1;fill-rule:nonzero;stroke:none"
         d="m 2504.95,3301.56 v -49.26 l 114.3,-63.93 v 56.59 l -114.3,56.6" /><path
         id="path350"
         style="fill:#252f68;fill-opacity:1;fill-rule:nonzero;stroke:none"
         d="m 2532.74,2468.84 -211.72,122.23 c -13.63,7.87 -13.63,27.54 0,35.41 l 241.07,139.18 271.75,-156.89 -242.38,-139.93 c -18.16,-10.49 -40.55,-10.49 -58.72,0" /><path
         id="path352"
         style="fill:#252f68;fill-opacity:1;fill-rule:nonzero;stroke:none"
         d="m 2188.07,3719.98 -30.97,-20.93 30.11,-766.08 982.69,-601.01 28.13,18.88 c 4.37,2.94 6.99,7.85 6.99,13.11 v 760.24 c 0,8.63 -4.6,16.59 -12.07,20.91 l -996.04,575.2 c -2.76,1.59 -6.2,1.47 -8.84,-0.32" /><path
         id="path354"
         style="fill:#77d2e2;fill-opacity:1;fill-rule:nonzero;stroke:none"
         d="m 3157.83,3125.94 c 9.31,-5.38 15.04,-15.31 15.04,-26.06 v -760.04 c 0,-6.87 -7.43,-11.16 -13.38,-7.72 l -980.69,566.26 c -14.69,8.49 -23.74,24.17 -23.74,41.13 v 754.5 c 0,4.87 5.26,7.91 9.48,5.47" /><path
         id="path356"
         style="fill:#ffffff;fill-opacity:1;fill-rule:nonzero;stroke:none"
         d="m 2155.06,3057.25 v 609.37 l 1016.51,-587.1 1.3,-609.98 -1017.81,587.71" /><path
         id="path358"
         style="fill:#77d2e2;fill-opacity:1;fill-rule:nonzero;stroke:none"
         d="m 2325.63,3473.55 -60.67,35.02 v 15.02 l 60.67,-35.03 v -15.01" /><path
         id="path360"
         style="fill:#a3e1ea;fill-opacity:1;fill-rule:nonzero;stroke:none"
         d="m 2854.02,3168.48 -489.64,282.7 v 15.02 l 489.64,-282.7 v -15.02" /><path
         id="path362"
         style="fill:#a3e1ea;fill-opacity:1;fill-rule:nonzero;stroke:none"
         d="m 3058.89,3050.13 -162.13,93.68 v 15.02 l 162.13,-93.69 v -15.01" /><path
         id="path364"
         style="fill:#77d2e2;fill-opacity:1;fill-rule:nonzero;stroke:none"
         d="m 2325.63,3424.3 -60.67,35.02 v 15.02 l 60.67,-35.02 v -15.02" /><path
         id="path366"
         style="fill:#a3e1ea;fill-opacity:1;fill-rule:nonzero;stroke:none"
         d="m 2854.02,3119.23 -489.64,282.69 v 15.02 l 489.64,-282.69 v -15.02" /><path
         id="path368"
         style="fill:#a3e1ea;fill-opacity:1;fill-rule:nonzero;stroke:none"
         d="m 3058.89,3000.87 -162.13,93.68 v 15.02 l 162.13,-93.68 v -15.02" /><path
         id="path370"
         style="fill:#77d2e2;fill-opacity:1;fill-rule:nonzero;stroke:none"
         d="m 2325.63,3375.04 -60.67,35.03 v 15.02 l 60.67,-35.03 v -15.02" /><path
         id="path372"
         style="fill:#a3e1ea;fill-opacity:1;fill-rule:nonzero;stroke:none"
         d="m 2754.38,3127.5 -390,225.17 v 15.02 l 390,-225.17 v -15.02" /><path
         id="path374"
         style="fill:#a3e1ea;fill-opacity:1;fill-rule:nonzero;stroke:none"
         d="m 3058.89,2951.62 -264.6,152.84 v 15.02 l 264.6,-152.84 v -15.02" /><path
         id="path376"
         style="fill:#77d2e2;fill-opacity:1;fill-rule:nonzero;stroke:none"
         d="m 2325.63,3325.79 -60.67,35.02 v 15.02 l 60.67,-35.02 v -15.02" /><path
         id="path378"
         style="fill:#a3e1ea;fill-opacity:1;fill-rule:nonzero;stroke:none"
         d="m 2924.81,2979.85 -560.43,323.57 v 15.02 l 560.43,-323.57 v -15.02" /><path
         id="path380"
         style="fill:#a3e1ea;fill-opacity:1;fill-rule:nonzero;stroke:none"
         d="m 3058.89,2902.37 -162.13,93.68 v 15.02 l 162.13,-93.68 v -15.02" /><path
         id="path382"
         style="fill:#77d2e2;fill-opacity:1;fill-rule:nonzero;stroke:none"
         d="m 2325.63,3276.54 -60.67,35.02 v 15.02 l 60.67,-35.02 v -15.02" /><path
         id="path384"
         style="fill:#a3e1ea;fill-opacity:1;fill-rule:nonzero;stroke:none"
         d="m 2854.02,2971.47 -489.64,282.69 v 15.02 l 489.64,-282.69 v -15.02" /><path
         id="path386"
         style="fill:#a3e1ea;fill-opacity:1;fill-rule:nonzero;stroke:none"
         d="m 3058.89,2853.12 -162.13,93.67 v 15.02 l 162.13,-93.68 v -15.01" /><path
         id="path388"
         style="fill:#77d2e2;fill-opacity:1;fill-rule:nonzero;stroke:none"
         d="m 2325.63,3227.28 -60.67,35.03 v 15.02 l 60.67,-35.03 v -15.02" /><path
         id="path390"
         style="fill:#a3e1ea;fill-opacity:1;fill-rule:nonzero;stroke:none"
         d="m 2712.87,3003.56 -348.49,201.35 v 15.02 l 348.49,-201.35 v -15.02" /><path
         id="path392"
         style="fill:#a3e1ea;fill-opacity:1;fill-rule:nonzero;stroke:none"
         d="m 3058.89,2803.87 -27.76,16.09 v 15.02 l 27.76,-16.1 v -15.01" /><path
         id="path394"
         style="fill:#a3e1ea;fill-opacity:1;fill-rule:nonzero;stroke:none"
         d="m 2990.56,2843.39 -93.8,54.16 v 15.01 l 93.8,-54.15 v -15.02" /><path
         id="path396"
         style="fill:#77d2e2;fill-opacity:1;fill-rule:nonzero;stroke:none"
         d="m 2325.63,3178.03 -60.67,35.02 v 15.02 l 60.67,-35.02 v -15.02" /><path
         id="path398"
         style="fill:#a3e1ea;fill-opacity:1;fill-rule:nonzero;stroke:none"
         d="m 2779.18,2916.17 -414.8,239.49 v 15.02 l 414.8,-239.49 v -15.02" /><path
         id="path400"
         style="fill:#a3e1ea;fill-opacity:1;fill-rule:nonzero;stroke:none"
         d="m 3058.89,2754.61 -239.65,138.43 v 15.02 l 239.65,-138.43 v -15.02" /><path
         id="path402"
         style="fill:#77d2e2;fill-opacity:1;fill-rule:nonzero;stroke:none"
         d="m 2325.63,3128.78 -60.67,35.02 v 15.02 l 60.67,-35.02 v -15.02" /><path
         id="path404"
         style="fill:#a3e1ea;fill-opacity:1;fill-rule:nonzero;stroke:none"
         d="m 2598.46,2971.26 -234.08,135.14 v 15.02 l 234.08,-135.14 v -15.02" /><path
         id="path406"
         style="fill:#a3e1ea;fill-opacity:1;fill-rule:nonzero;stroke:none"
         d="m 3058.89,2705.36 -414.81,239.56 v 15.01 l 414.81,-239.56 v -15.01" /><path
         id="path408"
         style="fill:#77d2e2;fill-opacity:1;fill-rule:nonzero;stroke:none"
         d="m 2325.63,3079.52 -60.67,35.03 v 15.02 l 60.67,-35.03 v -15.02" /><path
         id="path410"
         style="fill:#a3e1ea;fill-opacity:1;fill-rule:nonzero;stroke:none"
         d="m 2854.02,2774.46 -489.64,282.69 v 15.02 l 489.64,-282.69 v -15.02" /><path
         id="path412"
         style="fill:#a3e1ea;fill-opacity:1;fill-rule:nonzero;stroke:none"
         d="m 3058.89,2656.11 -162.13,93.68 v 15.01 l 162.13,-93.68 v -15.01" /><path
         id="path414"
         style="fill:#a3e1ea;fill-opacity:1;fill-rule:nonzero;stroke:none"
         d="m 3506.67,3295.94 -778.63,443.1 v 385.09 l 778.63,-443.1 v -385.09" /><path
         id="path416"
         style="fill:#252f68;fill-opacity:1;fill-rule:nonzero;stroke:none"
         d="m 2934.99,3908.46 v -191.92 l -24.65,14.23 v 86.47 l -86.7,50.06 v -86.48 l -24.77,14.31 v 191.92 l 24.77,-14.29 v -84.74 l 86.7,-50.06 v 84.74 l 24.65,-14.24" /><path
         id="path418"
         style="fill:#252f68;fill-opacity:1;fill-rule:nonzero;stroke:none"
         d="m 3089.4,3795.52 -52.77,30.47 v -168.13 l -24.55,14.16 v 168.14 l -53.01,30.61 v 23.79 l 130.33,-75.24 v -23.8" /><path
         id="path420"
         style="fill:#252f68;fill-opacity:1;fill-rule:nonzero;stroke:none"
         d="m 3288.15,3704.57 v -191.93 l -21.53,12.43 v 136.59 c 0,2.05 0.06,4.2 0.17,6.46 0.11,2.24 0.25,4.53 0.41,6.85 l -55.33,-85.28 c -1.93,-3.25 -4.9,-3.71 -8.92,-1.4 l -3.47,2.01 c -4.01,2.31 -6.94,6.19 -8.8,11.62 l -56.37,150.17 c 0.47,-5.26 0.7,-10.07 0.7,-14.44 v -136.6 l -21.65,12.5 v 191.93 l 18.29,-10.55 c 2.16,-1.25 3.84,-2.47 5.03,-3.65 1.2,-1.18 2.34,-3.19 3.42,-6.05 l 55.56,-147.02 c 1.08,-2.94 2.08,-5.97 3.01,-9.08 0.93,-3.13 1.82,-6.23 2.67,-9.29 1.61,4.31 3.5,8.3 5.66,11.96 l 54.52,83.33 c 1.01,1.64 2.1,2.37 3.3,2.17 1.2,-0.2 2.88,-0.92 5.03,-2.17 l 18.3,-10.56" /><path
         id="path422"
         style="fill:#252f68;fill-opacity:1;fill-rule:nonzero;stroke:none"
         d="m 3424.39,3457.9 v -23.92 l -95.14,54.93 v 191.93 l 24.65,-14.23 V 3498.6 l 70.49,-40.7" /><path
         id="path424"
         style="fill:#252f68;fill-opacity:1;fill-rule:nonzero;stroke:none"
         d="m 1819.46,3346.65 -603.04,336.88 v 385.1 l 603.04,-336.89 v -385.09" /><path
         id="path426"
         style="fill:#77d2e2;fill-opacity:1;fill-rule:nonzero;stroke:none"
         d="m 1438.72,3697.27 c 1.38,-0.8 2.57,-2.11 3.58,-3.94 l 9.73,-17.91 c -6.8,-5.35 -15.07,-7.74 -24.83,-7.18 -9.76,0.56 -21.52,4.8 -35.25,12.73 -12.04,6.95 -22.94,15.65 -32.7,26.1 -9.76,10.45 -18.1,21.98 -25,34.61 -6.91,12.64 -12.26,26.06 -16.03,40.27 -3.79,14.21 -5.68,28.53 -5.68,42.97 0,14.44 1.99,26.52 5.97,36.26 3.97,9.73 9.54,16.85 16.72,21.35 7.18,4.49 15.76,6.27 25.76,5.31 9.99,-0.96 21.04,-4.94 33.16,-11.93 11.8,-6.82 22.3,-15.1 31.48,-24.86 9.18,-9.76 17.17,-20.3 23.96,-31.61 l -8.1,-8.56 c -0.54,-0.67 -1.21,-1.08 -2.02,-1.23 -0.82,-0.16 -1.88,0.14 -3.19,0.9 -1.47,0.85 -3.18,2.68 -5.15,5.51 -1.96,2.83 -4.55,6.22 -7.75,10.16 -3.2,3.94 -7.16,8.12 -11.87,12.53 -4.71,4.41 -10.57,8.64 -17.59,12.7 -8.26,4.76 -15.82,7.46 -22.69,8.09 -6.87,0.62 -12.79,-0.77 -17.77,-4.18 -4.97,-3.41 -8.84,-8.89 -11.57,-16.44 -2.74,-7.56 -4.11,-17.08 -4.11,-28.57 0,-11.67 1.42,-22.88 4.28,-33.62 2.85,-10.73 6.79,-20.71 11.81,-29.93 5.01,-9.23 10.92,-17.44 17.71,-24.66 6.78,-7.22 14.12,-13.1 21.99,-17.65 4.78,-2.76 9.09,-4.91 12.9,-6.44 3.83,-1.54 7.33,-2.57 10.54,-3.08 3.2,-0.51 6.23,-0.54 9.08,-0.1 2.86,0.45 5.68,1.34 8.46,2.67 0.61,0.27 1.27,0.4 1.96,0.4 0.7,0 1.43,-0.22 2.21,-0.67" /><path
         id="path428"
         style="fill:#77d2e2;fill-opacity:1;fill-rule:nonzero;stroke:none"
         d="m 1562.91,3745.06 c -0.77,-1.07 -1.58,-1.72 -2.43,-1.93 -0.85,-0.23 -1.93,0.04 -3.24,0.8 -1.39,0.8 -2.97,2.44 -4.74,4.93 -1.78,2.5 -4,5.44 -6.67,8.79 -2.66,3.37 -5.84,6.85 -9.54,10.46 -3.71,3.61 -8.15,6.91 -13.32,9.9 -4.85,2.8 -9.12,4.53 -12.78,5.17 -3.67,0.65 -6.73,0.42 -9.21,-0.7 -2.47,-1.11 -4.34,-3.02 -5.61,-5.71 -1.27,-2.7 -1.91,-6.05 -1.91,-10.06 0,-5.16 1.14,-10.1 3.42,-14.8 2.27,-4.7 5.26,-9.32 8.96,-13.87 3.71,-4.55 7.91,-9.06 12.62,-13.56 4.71,-4.51 9.53,-9.14 14.47,-13.91 4.94,-4.77 9.76,-9.75 14.47,-14.96 4.7,-5.22 8.91,-10.79 12.61,-16.71 3.71,-5.93 6.7,-12.29 8.98,-19.08 2.27,-6.8 3.41,-14.16 3.41,-22.09 0,-8.46 -1.25,-15.67 -3.76,-21.62 -2.5,-5.95 -6.15,-10.3 -10.93,-13.06 -4.79,-2.76 -10.68,-3.71 -17.66,-2.84 -6.99,0.87 -14.92,3.86 -23.79,8.99 -5.32,3.07 -10.49,6.66 -15.51,10.76 -5.02,4.09 -9.76,8.53 -14.23,13.29 -4.48,4.77 -8.67,9.82 -12.56,15.14 -3.9,5.33 -7.39,10.8 -10.48,16.41 l 7.06,9.56 c 0.7,0.67 1.52,1.08 2.49,1.23 0.96,0.16 2.06,-0.12 3.3,-0.83 1.62,-0.94 3.49,-3 5.61,-6.19 2.12,-3.18 4.75,-6.86 7.87,-11.02 3.13,-4.17 6.87,-8.49 11.23,-12.97 4.36,-4.47 9.67,-8.52 15.92,-12.13 5.09,-2.93 9.65,-4.79 13.66,-5.54 4,-0.76 7.39,-0.48 10.13,0.83 2.73,1.31 4.84,3.6 6.3,6.85 1.47,3.25 2.2,7.37 2.2,12.37 0,5.61 -1.12,10.84 -3.35,15.7 -2.24,4.85 -5.22,9.55 -8.92,14.1 -3.7,4.55 -7.91,9.03 -12.61,13.43 -4.71,4.41 -9.53,8.96 -14.48,13.63 -4.93,4.68 -9.76,9.59 -14.46,14.71 -4.71,5.13 -8.91,10.69 -12.62,16.71 -3.7,6.01 -6.68,12.58 -8.91,19.71 -2.24,7.13 -3.36,14.97 -3.36,23.52 0,6.87 1.16,12.83 3.47,17.92 2.32,5.07 5.69,8.8 10.14,11.18 4.43,2.39 9.88,3.2 16.37,2.44 6.49,-0.75 13.89,-3.54 22.23,-8.35 9.33,-5.39 17.92,-12.06 25.75,-20.01 7.83,-7.95 14.64,-16.81 20.43,-26.57 l -6.02,-10.02" /><path
         id="path430"
         style="fill:#77d2e2;fill-opacity:1;fill-rule:nonzero;stroke:none"
         d="m 1688.85,3672.35 c -0.77,-1.07 -1.58,-1.72 -2.43,-1.94 -0.85,-0.22 -1.93,0.05 -3.25,0.8 -1.38,0.81 -2.96,2.45 -4.74,4.95 -1.77,2.5 -4,5.43 -6.66,8.79 -2.66,3.36 -5.84,6.85 -9.54,10.45 -3.71,3.61 -8.15,6.91 -13.32,9.9 -4.86,2.81 -9.12,4.53 -12.78,5.17 -3.67,0.65 -6.74,0.42 -9.21,-0.7 -2.47,-1.11 -4.34,-3.02 -5.61,-5.71 -1.28,-2.7 -1.92,-6.05 -1.92,-10.06 0,-5.16 1.15,-10.1 3.42,-14.8 2.28,-4.7 5.27,-9.32 8.97,-13.87 3.71,-4.54 7.91,-9.06 12.62,-13.56 4.71,-4.5 9.53,-9.13 14.47,-13.91 4.94,-4.77 9.76,-9.75 14.47,-14.97 4.7,-5.21 8.91,-10.78 12.61,-16.7 3.71,-5.92 6.7,-12.29 8.97,-19.08 2.28,-6.79 3.42,-14.16 3.42,-22.09 0,-8.47 -1.26,-15.66 -3.76,-21.62 -2.51,-5.95 -6.16,-10.3 -10.94,-13.06 -4.78,-2.77 -10.67,-3.71 -17.65,-2.84 -6.99,0.87 -14.92,3.86 -23.79,8.99 -5.32,3.07 -10.5,6.66 -15.51,10.76 -5.02,4.1 -9.77,8.53 -14.23,13.3 -4.48,4.77 -8.67,9.81 -12.57,15.13 -3.89,5.33 -7.39,10.8 -10.48,16.41 l 7.07,9.56 c 0.69,0.67 1.52,1.08 2.49,1.23 0.96,0.16 2.06,-0.12 3.3,-0.83 1.62,-0.94 3.49,-3 5.61,-6.18 2.12,-3.19 4.75,-6.87 7.87,-11.03 3.13,-4.17 6.87,-8.49 11.23,-12.96 4.36,-4.49 9.67,-8.53 15.92,-12.14 5.08,-2.94 9.64,-4.79 13.65,-5.54 4.01,-0.76 7.39,-0.48 10.13,0.83 2.74,1.32 4.84,3.6 6.31,6.85 1.46,3.26 2.2,7.37 2.2,12.37 0,5.61 -1.12,10.85 -3.35,15.7 -2.25,4.85 -5.22,9.55 -8.92,14.1 -3.71,4.55 -7.91,9.02 -12.62,13.43 -4.7,4.41 -9.52,8.96 -14.47,13.64 -4.94,4.67 -9.76,9.58 -14.47,14.7 -4.7,5.13 -8.9,10.69 -12.61,16.71 -3.71,6.01 -6.68,12.58 -8.92,19.71 -2.24,7.13 -3.35,14.97 -3.35,23.52 0,6.87 1.16,12.83 3.47,17.92 2.32,5.07 5.69,8.8 10.13,11.19 4.44,2.38 9.89,3.2 16.38,2.43 6.48,-0.75 13.89,-3.54 22.23,-8.35 9.33,-5.39 17.92,-12.06 25.74,-20.01 7.84,-7.96 14.65,-16.81 20.44,-26.57 l -6.02,-10.02" /><path
         id="path432"
         style="fill:#4859b1;fill-opacity:1;fill-rule:nonzero;stroke:none"
         d="m 4275.56,2108.55 -603.05,336.89 v 385.09 l 603.05,-336.88 v -385.1" /><path
         id="path434"
         style="fill:#a3e1ea;fill-opacity:1;fill-rule:nonzero;stroke:none"
         d="m 3816.27,2561.43 c 6.25,-3.61 11.75,-5.85 16.48,-6.71 4.75,-0.87 8.72,-0.52 11.94,1.06 3.2,1.59 5.6,4.3 7.22,8.12 1.63,3.83 2.44,8.64 2.44,14.44 0,11.67 -3.15,22.66 -9.44,32.98 -6.29,10.31 -15.84,19.17 -28.64,26.56 l -25.7,14.84 v -76.45 z m 0,98.77 c 10.64,-6.14 19.9,-12.92 27.77,-20.31 7.87,-7.4 14.4,-15.19 19.57,-23.39 5.17,-8.2 9.01,-16.72 11.52,-25.56 2.51,-8.85 3.76,-17.77 3.76,-26.77 0,-9 -1.35,-16.49 -4.06,-22.45 -2.69,-5.97 -6.67,-10.16 -11.92,-12.57 -5.24,-2.4 -11.79,-2.83 -19.62,-1.3 -7.83,1.53 -16.83,5.24 -27.02,11.13 l -25.7,14.84 v -70.71 l -24.65,14.24 v 191.93 l 50.35,-29.08" /><path
         id="path436"
         style="fill:#a3e1ea;fill-opacity:1;fill-rule:nonzero;stroke:none"
         d="m 4042.1,2529.82 v -191.93 l -24.66,14.24 v 86.47 l -86.7,50.06 v -86.48 l -24.76,14.3 v 191.93 l 24.76,-14.3 v -84.74 l 86.7,-50.06 v 84.75 l 24.66,-14.24" /><path
         id="path438"
         style="fill:#a3e1ea;fill-opacity:1;fill-rule:nonzero;stroke:none"
         d="m 4133.54,2378.25 c 6.25,-3.6 11.75,-5.85 16.5,-6.71 4.75,-0.88 8.72,-0.52 11.92,1.07 3.21,1.58 5.62,4.28 7.23,8.11 1.63,3.83 2.44,8.64 2.44,14.43 0,11.67 -3.14,22.68 -9.44,32.99 -6.28,10.32 -15.84,19.17 -28.65,26.57 l -25.7,14.83 v -76.45 z m 0,98.77 c 10.65,-6.14 19.91,-12.92 27.79,-20.31 7.86,-7.4 14.39,-15.2 19.56,-23.39 5.16,-8.2 9,-16.72 11.51,-25.57 2.51,-8.84 3.76,-17.76 3.76,-26.76 0,-9 -1.35,-16.48 -4.04,-22.46 -2.71,-5.96 -6.68,-10.15 -11.93,-12.56 -5.25,-2.41 -11.79,-2.84 -19.62,-1.29 -7.83,1.53 -16.84,5.24 -27.03,11.12 l -25.7,14.83 v -70.7 l -24.65,14.24 v 191.93 l 50.35,-29.08" /><path
         id="path440"
         style="fill:#252f68;fill-opacity:1;fill-rule:nonzero;stroke:none"
         d="m 4621.7,3396.74 -414.49,232.01 v 385.1 l 414.49,-232.02 v -385.09" /><path
         id="path442"
         style="fill:#ffffff;fill-opacity:1;fill-rule:nonzero;stroke:none"
         d="m 4373.88,3699.83 c 0,-10.7 -1.16,-19.65 -3.47,-26.87 -2.31,-7.22 -5.69,-12.51 -10.13,-15.87 -4.44,-3.37 -9.96,-4.72 -16.56,-4.07 -6.59,0.64 -14.17,3.43 -22.74,8.38 -7.72,4.46 -15.67,10.29 -23.84,17.51 l 1.39,16.04 c 0.15,1.51 0.67,2.52 1.56,3.04 0.89,0.51 2.21,0.26 3.99,-0.77 1.31,-0.76 3.11,-2.17 5.38,-4.24 2.28,-2.07 5.27,-4.18 8.98,-6.32 4.93,-2.85 9.31,-4.54 13.13,-5.05 3.82,-0.5 7.04,0.28 9.67,2.38 2.62,2.09 4.61,5.56 5.96,10.39 1.35,4.83 2.03,11.17 2.03,19.01 v 125.77 l 24.65,-14.23 v -125.1" /><path
         id="path444"
         style="fill:#ffffff;fill-opacity:1;fill-rule:nonzero;stroke:none"
         d="m 4499.24,3721.28 c -0.77,-1.07 -1.58,-1.72 -2.43,-1.94 -0.85,-0.23 -1.93,0.04 -3.25,0.8 -1.38,0.8 -2.96,2.45 -4.73,4.94 -1.78,2.5 -4.01,5.43 -6.66,8.8 -2.67,3.35 -5.85,6.85 -9.55,10.46 -3.7,3.6 -8.15,6.9 -13.31,9.88 -4.87,2.81 -9.13,4.54 -12.8,5.18 -3.66,0.65 -6.72,0.41 -9.2,-0.7 -2.47,-1.11 -4.34,-3.02 -5.61,-5.72 -1.27,-2.69 -1.91,-6.04 -1.91,-10.05 0,-5.17 1.14,-10.11 3.41,-14.8 2.28,-4.7 5.28,-9.33 8.98,-13.87 3.7,-4.55 7.9,-9.07 12.61,-13.56 4.71,-4.51 9.53,-9.14 14.48,-13.91 4.93,-4.77 9.75,-9.75 14.46,-14.97 4.71,-5.21 8.91,-10.78 12.62,-16.71 3.7,-5.92 6.69,-12.28 8.96,-19.07 2.28,-6.8 3.42,-14.16 3.42,-22.09 0,-8.47 -1.26,-15.67 -3.76,-21.62 -2.51,-5.95 -6.15,-10.3 -10.94,-13.06 -4.78,-2.77 -10.67,-3.72 -17.65,-2.84 -6.99,0.87 -14.92,3.86 -23.78,8.98 -5.33,3.08 -10.5,6.67 -15.52,10.77 -5.02,4.09 -9.77,8.53 -14.24,13.29 -4.47,4.77 -8.66,9.82 -12.56,15.14 -3.89,5.32 -7.38,10.79 -10.48,16.41 l 7.08,9.55 c 0.69,0.67 1.51,1.08 2.49,1.24 0.95,0.15 2.06,-0.12 3.29,-0.83 1.62,-0.94 3.49,-3 5.61,-6.19 2.12,-3.18 4.75,-6.86 7.87,-11.03 3.13,-4.16 6.87,-8.48 11.22,-12.96 4.37,-4.48 9.68,-8.52 15.93,-12.13 5.09,-2.94 9.64,-4.79 13.65,-5.54 4.02,-0.76 7.4,-0.49 10.14,0.83 2.73,1.32 4.83,3.6 6.3,6.85 1.46,3.25 2.21,7.37 2.21,12.36 0,5.62 -1.13,10.85 -3.36,15.71 -2.24,4.85 -5.22,9.56 -8.92,14.1 -3.7,4.54 -7.91,9.02 -12.62,13.43 -4.7,4.41 -9.53,8.95 -14.47,13.63 -4.93,4.68 -9.76,9.58 -14.46,14.7 -4.71,5.13 -8.92,10.7 -12.62,16.71 -3.7,6.02 -6.68,12.59 -8.92,19.72 -2.23,7.12 -3.34,14.97 -3.34,23.52 0,6.86 1.15,12.83 3.46,17.91 2.32,5.08 5.7,8.81 10.13,11.2 4.43,2.38 9.89,3.19 16.39,2.43 6.47,-0.76 13.88,-3.54 22.21,-8.35 9.34,-5.39 17.92,-12.07 25.75,-20.01 7.84,-7.96 14.65,-16.81 20.44,-26.57 l -6.02,-10.02" /><path
         id="path446"
         style="fill:#252f68;fill-opacity:1;fill-rule:nonzero;stroke:none"
         d="m 1022.86,583.059 c 0,-23.661 -16.61,-52.45 -37.114,-64.27 -20.496,-11.84 -37.117,-2.25 -37.117,21.422 0,23.668 16.621,52.449 37.117,64.289 20.504,11.84 37.114,2.238 37.114,-21.441" /><path
         id="path448"
         style="fill:#252f68;fill-opacity:1;fill-rule:nonzero;stroke:none"
         d="m 992.379,602.039 c 7.246,-22.527 0.238,-55.019 -15.649,-72.559 -15.89,-17.55 -34.644,-13.511 -41.894,9.032 -7.246,22.527 -0.246,55.019 15.644,72.558 15.891,17.551 34.649,13.512 41.899,-9.031" /><path
         id="path450"
         style="fill:#252f68;fill-opacity:1;fill-rule:nonzero;stroke:none"
         d="m 1671.64,1244.76 c 0,0 3.85,-124.95 21.15,-169.16 17.3,-44.21 59.59,-40.36 92.26,-36.52 32.68,3.85 115.34,63.18 155.71,101.76 40.36,38.56 124.94,31.18 192.22,126.18 67.27,95 0,135.36 -21.14,137.28 -21.15,1.93 -132.23,-86.9 -219.79,-51.84 l -220.41,-107.7" /><path
         id="path452"
         style="fill:#4354a8;fill-opacity:1;fill-rule:nonzero;stroke:none"
         d="m 835.422,1874.65 c 0,0 715.108,235.37 850.978,138.18 127.13,-90.93 106.48,-364.39 205.65,-660.37 2.56,-7.66 2.26,-15.95 -0.99,-23.34 -15.27,-34.67 -71.25,-129.01 -221.23,-104.47 0,0 -83.15,216.5 -139.65,442.52 0,0 -557.051,-358.97 -684.02,-265.9 -126.965,93.06 -10.738,473.38 -10.738,473.38" /><path
         id="path454"
         style="fill:#252f68;fill-opacity:1;fill-rule:nonzero;stroke:none"
         d="m 543.445,851.969 470.025,82.793 -42.732,-349.84 42.732,-10.684 82.78,360.524 437.98,-180.262 24.04,25.801 -416.61,197.187 315.13,144.222 -34.72,16.01 -349.23,-119.2 -184.891,119.2 -47.226,-10.67 167.407,-138.878 -454.005,-101.481 -10.68,-34.722" /><path
         id="path456"
         style="fill:#252f68;fill-opacity:1;fill-rule:nonzero;stroke:none"
         d="m 602.973,900.012 c 0,-23.672 -16.618,-52.453 -37.114,-64.293 -20.5,-11.84 -37.121,-2.25 -37.121,21.429 0,23.672 16.621,52.454 37.121,64.282 20.496,11.84 37.114,2.25 37.114,-21.418" /><path
         id="path458"
         style="fill:#252f68;fill-opacity:1;fill-rule:nonzero;stroke:none"
         d="m 619.711,890.34 c 0,-23.66 -16.621,-52.449 -37.117,-64.289 -20.5,-11.832 -37.117,-2.231 -37.117,21.437 0,23.66 16.617,52.453 37.117,64.293 20.496,11.821 37.117,2.231 37.117,-21.441" /><path
         id="path460"
         style="fill:#252f68;fill-opacity:1;fill-rule:nonzero;stroke:none"
         d="m 1574.6,792.371 c 0,-23.672 -16.62,-52.449 -37.11,-64.289 -20.5,-11.832 -37.12,-2.23 -37.12,21.43 0,23.668 16.62,52.449 37.12,64.289 20.49,11.828 37.11,2.238 37.11,-21.43" /><path
         id="path462"
         style="fill:#252f68;fill-opacity:1;fill-rule:nonzero;stroke:none"
         d="m 1553.92,806.012 c 0,-23.672 -16.62,-52.453 -37.11,-64.282 -20.5,-11.839 -37.12,-2.242 -37.12,21.418 0,23.672 16.62,52.454 37.12,64.293 20.49,11.84 37.11,2.25 37.11,-21.429" /><path
         id="path464"
         style="fill:#252f68;fill-opacity:1;fill-rule:nonzero;stroke:none"
         d="m 1108.37,1177.57 h -84.35 V 971.238 h 84.35 v 206.332" /><path
         id="path466"
         style="fill:#252f68;fill-opacity:1;fill-rule:nonzero;stroke:none"
         d="m 2019.64,1137.82 c 0,0 3.84,-124.94 21.14,-169.148 17.3,-44.211 59.59,-40.371 92.27,-36.524 32.68,3.84 115.33,63.18 155.7,101.742 40.37,38.58 124.95,31.19 192.22,126.19 67.28,95 0,135.37 -21.14,137.29 -21.14,1.92 -126.67,-77.81 -214.23,-42.75 l -225.96,-116.8" /><path
         id="path468"
         style="fill:#4859b1;fill-opacity:1;fill-rule:nonzero;stroke:none"
         d="m 1185.22,1787.83 c 0,0 715.12,235.37 850.99,138.18 128.7,-92.06 105.94,-371.2 209.39,-671.39 0,0 -43.16,-146.71 -225.96,-116.8 0,0 -83.15,216.51 -139.65,442.53 0,0 -557.05,-358.97 -684.02,-265.9 -126.97,93.06 -10.75,473.38 -10.75,473.38" /><path
         id="path470"
         style="fill:#77d2e2;fill-opacity:1;fill-rule:nonzero;stroke:none"
         d="m 1770.09,1482.18 c -25.18,-136.19 -257.21,-302.56 -660.76,-363.08 -14.08,-2.17 -148.209,-28.55 -266.326,-5.41 74.184,142.27 269.976,378.37 208.656,610.95 144.58,-22.47 740.5,-122.79 718.43,-242.46" /><path
         id="path472"
         style="fill:#4859b1;fill-opacity:1;fill-rule:nonzero;stroke:none"
         d="m 1050.85,1694.13 85.76,-88.19 c 20.21,-121.66 93.67,-240.34 205.84,-249.28 l 574.44,196.32 v 199.71 l -866.04,-58.56" /><path
         id="path474"
         style="fill:#252f68;fill-opacity:1;fill-rule:nonzero;stroke:none"
         d="m 1244.79,2586.22 -297.86,150.84 c -30.657,15.53 -64.52,24.01 -98.871,23.57 -62.899,-0.81 -154.219,-21.81 -189.989,-129.11 -56.886,-170.67 127.328,-864.19 127.328,-864.19 0,0 185.051,-228.9 331.342,-218.06 146.29,10.83 356.77,134.08 356.77,237.03 0,73.43 -56.93,419.08 -89.55,611.17 -13.84,81.44 -65.47,151.42 -139.17,188.75" /><path
         id="path476"
         style="fill:none;stroke:#252f68;stroke-width:7.5;stroke-linecap:butt;stroke-linejoin:miter;stroke-miterlimit:10;stroke-dasharray:none;stroke-opacity:1"
         d="m 1384.76,3024.43 c 1.62,0 38.13,-8.72 57.44,-13.36 6.13,-1.48 9.36,-8.14 6.79,-13.89 l -12.38,-27.78 c -4.24,-9.5 -13.66,-15.62 -24.06,-15.62 h -43.25" /><path
         id="path478"
         style="fill:#f4708c;fill-opacity:1;fill-rule:nonzero;stroke:none"
         d="m 996.957,2762.03 30.693,199.5 386.73,224.06 v -151.14 c 0,-8.64 -1.6,-17.2 -4.72,-25.26 l -7.45,-19.25 c -4.08,-10.56 -5.23,-22.02 -3.32,-33.18 l 2.88,-16.8 c 2.22,-12.97 0.69,-26.31 -4.42,-38.44 l -34.81,-82.68 c -11.1,-26.37 -38.32,-42.2 -66.73,-38.81 l -54.84,6.56 -23.02,-122.78 -220.993,98.22" /><path
         id="path480"
         style="fill:#252f68;fill-opacity:1;fill-rule:nonzero;stroke:none"
         d="m 1018.36,2853.43 67.87,-13.77 c 34.56,-7.02 70.41,2.61 96.81,25.99 l 91.77,81.25 v -22.2 l 14.72,2.8 c 13.21,2.51 23.93,12.15 27.83,25.01 l 35.44,116.95 c 0,0 98.87,8.35 128.12,129.52 0,0 -108.63,107.23 -264.61,96.09 -155.97,-11.14 -213.07,-140.66 -213.07,-140.66 0,0 -33.431,4.18 -48.748,-37.6 -12.379,-33.76 22.973,-182.09 37,-237.79 3.278,-13.01 13.718,-22.92 26.868,-25.59" /><path
         id="path482"
         style="fill:#f4708c;fill-opacity:1;fill-rule:nonzero;stroke:none"
         d="m 1269.78,2896.55 12.3,63.66 c 0,0 -12.84,31.03 -42.8,18.72 -29.95,-12.3 -17.12,-90.4 0,-92.55 17.12,-2.13 30.5,10.17 30.5,10.17" /><path
         id="path484"
         style="fill:#77d2e2;fill-opacity:1;fill-rule:nonzero;stroke:none"
         d="m 1282.08,2960.21 160.98,9.57 10.14,25.53 -182.92,-19.81 11.8,-15.29" /><path
         id="path486"
         style="fill:#77d2e2;fill-opacity:1;fill-rule:nonzero;stroke:none"
         d="m 1162.85,1447.99 c 22.14,-227.45 -208.33,-400.1 -418.303,-309.93 -195.742,84.08 -339.254,270.73 -381.813,593.17 -47.515,359.01 16.657,586.17 63.766,696.64 23.012,53.61 79.461,84.88 137.133,76.89 450.797,-62.81 563.437,-803.45 563.437,-803.45 0,0 22.6,-117.86 35.78,-253.32" /><path
         id="path488"
         style="fill:#f4708c;fill-opacity:1;fill-rule:nonzero;stroke:none"
         d="m 1556.92,2486.79 c 0,0 54.54,106.97 71.32,117.46 16.78,10.49 155.23,14.68 167.81,16.78 12.59,2.1 37.76,-25.17 37.76,-25.17 0,0 71.32,2.1 79.72,0 8.38,-2.1 6.29,-41.84 -12.59,-41.9 -18.88,-0.06 -55.02,-11.21 -55.02,-11.21 l -43.57,-55.96 c 0,0 -73.42,-48.26 -86.01,-48.26 -12.59,0 -100.69,-16.77 -100.69,-16.77 l -58.73,65.03" /><path
         id="path490"
         style="fill:#f4708c;fill-opacity:1;fill-rule:nonzero;stroke:none"
         d="m 2033.01,2335.13 c 0,0 54.54,106.99 71.33,117.48 16.77,10.48 155.22,14.68 167.81,16.78 12.59,2.1 37.76,-25.17 37.76,-25.17 l 26.74,-16.69 c 16.85,-10.52 17.54,-34.8 1.28,-46.21 -28.06,-19.71 -59.49,-46.19 -59.49,-46.19 0,0 -73.42,-48.24 -86,-48.24 -12.59,0 -100.69,-16.77 -100.69,-16.77 l -58.74,65.01" /><path
         id="path492"
         style="fill:#252f68;fill-opacity:1;fill-rule:nonzero;stroke:none"
         d="m 1116.74,2274.18 483.88,-273.5 c 55.53,-31.39 123.97,-28.98 177.17,6.22 l 367.75,270.91 c 0,0 -17.87,92 -89.08,112.91 -14.79,4.35 -331.09,-110.47 -331.09,-110.47 -21.21,-9.38 -45.81,-6.76 -64.56,6.88 l -367.42,267.17 -176.65,-239.26" /><path
         id="path494"
         style="fill:#252f68;fill-opacity:1;fill-rule:nonzero;stroke:none"
         d="m 1214.33,2447.21 355.62,82.32 c 72.93,0 83.66,-104.19 83.66,-104.19 l -245.23,-173.81 -194.05,195.68" /><path
         id="path496"
         style="fill:#252f68;fill-opacity:1;fill-rule:nonzero;stroke:none"
         d="m 1473.51,1155.23 c 0,-23.67 -16.63,-52.45 -37.12,-64.28 -20.5,-11.84 -37.12,-2.25 -37.12,21.42 0,23.67 16.62,52.45 37.12,64.29 20.49,11.83 37.12,2.23 37.12,-21.43" /><path
         id="path498"
         style="fill:#252f68;fill-opacity:1;fill-rule:nonzero;stroke:none"
         d="m 1456.44,1165.09 c 0,-23.68 -16.62,-52.46 -37.12,-64.29 -20.5,-11.84 -37.11,-2.25 -37.11,21.42 0,23.68 16.61,52.46 37.11,64.29 20.5,11.84 37.12,2.24 37.12,-21.42" /><path
         id="path500"
         style="fill:none;stroke:#ffffff;stroke-width:40;stroke-linecap:round;stroke-linejoin:miter;stroke-miterlimit:10;stroke-dasharray:none;stroke-opacity:1"
         d="m 1770.09,1482.18 c -439.04,-249.41 -570.09,-67.64 -605.76,19.71 -9.49,23.23 -12.24,39.78 -12.24,39.78 0,0 -89.11,462.07 -208.438,675.21 -100.648,179.8 -234.879,299.37 -444.074,305.69" /><path
         id="path502"
         style="fill:#4859b1;fill-opacity:1;fill-rule:nonzero;stroke:none"
         d="m 1000.41,2794.24 -53.48,-57.18 297.86,-150.84 -20.8,109.82 -223.58,98.2" /><path
         id="path518"
         style="fill:url(#pattern516);fill-opacity:1;fill-rule:nonzero;stroke:none"
         d="m 2734.33,297.102 c -4.32,-4.43 -8.03,-9.313 -11.08,-14.532 l -4.65,2.41 c -0.68,2.969 -3.49,5.02 -6.6,4.661 -3.3,-0.391 -5.66,-3.391 -5.29,-6.7 0.39,-3.312 3.4,-5.679 6.7,-5.293 0.66,0.071 1.27,0.262 1.83,0.524 l 4.52,-2.332 c -2.5,-5.551 -4.32,-11.399 -5.4,-17.442 l 7.49,-1.308 c 2.28,13.039 8.49,25.058 17.91,34.711 l -5.43,5.301" /><path
         id="path534"
         style="fill:url(#pattern532);fill-opacity:1;fill-rule:nonzero;stroke:none"
         d="m 2789.21,320.121 c -1.72,0 -3.42,-0.062 -5.1,-0.16 l -0.74,6.25 c 1.87,1.5 2.97,3.891 2.66,6.437 -0.45,3.93 -4.03,6.743 -7.95,6.282 -3.93,-0.461 -6.74,-4.008 -6.27,-7.961 0.29,-2.528 1.89,-4.598 4.04,-5.629 l 0.72,-6.238 c -7.13,-1.161 -14.02,-3.321 -20.58,-6.461 l 3.26,-6.84 c 9.35,4.469 19.41,6.738 29.96,6.738 4.96,0 9.92,-0.527 14.74,-1.578 l 1.61,7.418 c -5.36,1.152 -10.84,1.742 -16.35,1.742" /><path
         id="path550"
         style="fill:url(#pattern548);fill-opacity:1;fill-rule:nonzero;stroke:none"
         d="m 2855.22,294.648 c 3.32,0.403 5.67,3.403 5.26,6.723 -0.39,3.309 -3.4,5.66 -6.72,5.25 -3.09,-0.371 -5.35,-3.031 -5.29,-6.082 l -4.16,-3.641 c -4.18,4.313 -8.91,8.133 -14.09,11.403 l -4.04,-6.422 c 11.35,-7.149 20.22,-17.25 25.65,-29.25 l 6.89,3.133 c -2.5,5.539 -5.66,10.707 -9.41,15.449 l 4.02,3.5 c 0.61,-0.109 1.25,-0.152 1.89,-0.063" /><path
         id="path566"
         style="fill:url(#pattern564);fill-opacity:1;fill-rule:nonzero;stroke:none"
         d="m 2783.74,218.039 c -3.87,-0.238 -7.75,-0.359 -11.58,-0.359 -8.79,0 -17.33,0.621 -24.79,1.8 -3.9,0.622 -8.45,1.54 -12.69,2.918 10.47,-18.609 30.68,-31.25 53.88,-31.25 28.56,0 52.62,19.161 59.5,45.032 -6.82,-4.489 -15.06,-8.25 -24.59,-11.219 -11.8,-3.68 -25.55,-6.082 -39.73,-6.922" /><path
         id="path582"
         style="fill:url(#pattern580);fill-opacity:1;fill-rule:nonzero;stroke:none"
         d="m 2814.99,248.879 c -7.5,0 -13.61,6.121 -13.61,13.621 0,7.5 6.11,13.59 13.61,13.59 7.5,0 13.59,-6.09 13.59,-13.59 0,-7.5 -6.09,-13.621 -13.59,-13.621 z m -47.38,-9.078 c -10.2,0 -18.5,8.301 -18.5,18.5 0,10.211 8.3,18.5 18.5,18.5 10.19,0 18.49,-8.289 18.49,-18.5 0,-10.199 -8.3,-18.5 -18.49,-18.5 z m 21.6,65.16 c -33.52,0 -60.8,-26.66 -60.8,-59.441 0,-4.25 0.47,-8.489 1.37,-12.61 6.73,-4.828 27.07,-8.91 53.47,-7.32 28.81,1.75 52.97,9.582 66.72,21.601 -0.04,1.95 -0.19,3.899 -0.45,5.809 -3.79,29.621 -29.73,51.961 -60.31,51.961" /><path
         id="path598"
         style="fill:url(#pattern596);fill-opacity:1;fill-rule:nonzero;stroke:none"
         d="m 2949.25,286.281 c -2.95,1.16 -8.07,3.09 -13.83,2.391 -5.51,-0.703 -8.44,-3.422 -8.44,-10.082 v -8.66 h 22.29 v -17.168 h -22.29 v -54.543 h -19.31 v 54.543 h -13.4 v 17.168 h 13.4 v 8.89 c 0,16.801 8.94,27.821 25.68,27.821 6.43,0 11.56,-1.211 15.9,-3.082 v -17.278" /><path
         id="path614"
         style="fill:url(#pattern612);fill-opacity:1;fill-rule:nonzero;stroke:none"
         d="m 2996.26,252.969 c -1.76,0.293 -3.57,0.461 -5.25,0.461 -8.95,0 -15.1,-5.481 -15.1,-16.129 v -39.082 h -19.32 v 71.711 h 18.73 v -7.84 c 4.51,6.73 11.39,9.762 20.2,9.762 4.14,0 8.47,-1.27 10.95,-3.372 l -10.21,-15.511" /><path
         id="path630"
         style="fill:url(#pattern628);fill-opacity:1;fill-rule:nonzero;stroke:none"
         d="m 3021.81,240.84 h 31.73 c -1.77,9.18 -7.32,14.371 -15.6,14.371 -9.1,0 -14.43,-5.492 -16.13,-14.371 z m 51.13,-6.66 c 0,-2.211 -0.16,-4.891 -0.37,-6.508 h -50.84 c 2.07,-10.371 9.31,-14.883 18.42,-14.883 6.23,0 12.95,2.52 18.14,6.891 l 11.33,-12.442 c -8.15,-7.476 -18.52,-10.879 -30.57,-10.879 -21.99,0 -37.24,14.961 -37.24,37.52 0,22.582 14.8,37.973 36.27,37.973 20.64,0 34.78,-15.313 34.86,-37.672" /><path
         id="path646"
         style="fill:url(#pattern644);fill-opacity:1;fill-rule:nonzero;stroke:none"
         d="m 3098.33,240.84 h 31.76 c -1.78,9.18 -7.35,14.371 -15.63,14.371 -9.1,0 -14.43,-5.492 -16.13,-14.371 z m 51.15,-6.66 c 0,-2.211 -0.15,-4.891 -0.37,-6.508 h -50.86 c 2.07,-10.371 9.34,-14.883 18.44,-14.883 6.21,0 12.95,2.52 18.12,6.891 l 11.33,-12.442 c -8.14,-7.476 -18.49,-10.879 -30.56,-10.879 -22,0 -37.23,14.961 -37.23,37.52 0,22.582 14.8,37.973 36.27,37.973 20.64,0 34.78,-15.313 34.86,-37.672" /><path
         id="path662"
         style="fill:url(#pattern660);fill-opacity:1;fill-rule:nonzero;stroke:none"
         d="m 3176.16,234.109 c 0,-11.32 7.48,-19.769 18.44,-19.769 11.39,0 18.5,8.808 18.5,19.769 0,10.95 -7.11,19.762 -18.5,19.762 -10.96,0 -18.44,-8.441 -18.44,-19.762 z m 56.78,0 c 0,-21.539 -14.96,-37.75 -34.73,-37.75 -9.61,0 -16.42,3.77 -21.09,9.321 v -37.078 h -19.24 V 269.93 h 18.87 v -7.918 c 4.67,5.847 11.54,9.84 21.38,9.84 19.85,0 34.81,-16.211 34.81,-37.743" /><path
         id="path678"
         style="fill:url(#pattern676);fill-opacity:1;fill-rule:nonzero;stroke:none"
         d="m 3261.38,198.219 h -19.32 v 71.711 h 19.32 z m 2.59,95.179 c 0,-6.968 -5.41,-12.296 -12.36,-12.296 -6.97,0 -12.28,5.328 -12.28,12.296 0,6.954 5.31,12.442 12.28,12.442 6.95,0 12.36,-5.488 12.36,-12.442" /><path
         id="path694"
         style="fill:url(#pattern692);fill-opacity:1;fill-rule:nonzero;stroke:none"
         d="m 3293.6,244.391 27.03,25.539 h 23.68 l -34.79,-33.75 35.02,-37.961 h -23.77 l -27.17,29 v -29 h -19.31 v 106.582 h 19.31 v -60.41" /><path
         id="path710"
         style="fill:url(#pattern708);fill-opacity:1;fill-rule:nonzero;stroke:none"
         d="m 1977.41,218.039 v 32.09 c -3.95,6.152 -12.44,11.422 -21.24,11.422 -14.2,0 -22.7,-11.711 -22.7,-27.391 0,-15.68 8.5,-27.25 22.7,-27.25 8.8,0 17.29,4.981 21.24,11.129 z m 0,-19.18 v 10.539 c -5.27,-7.179 -13.91,-12.296 -23.87,-12.296 -18.46,0 -31.49,14.07 -31.49,37.058 0,22.559 12.89,37.211 31.49,37.211 9.52,0 18.16,-4.691 23.87,-12.449 v 37.637 h 10.99 v -97.7 h -10.99" /><path
         id="path726"
         style="fill:url(#pattern724);fill-opacity:1;fill-rule:nonzero;stroke:none"
         d="m 2037.32,262.281 c -15.08,0 -22.55,-12.73 -23.14,-23.57 h 46.44 c -0.15,10.539 -7.18,23.57 -23.3,23.57 z m -34.71,-27.98 c 0,20.508 14.65,37.07 34.86,37.07 21.39,0 33.98,-16.699 33.98,-37.941 v -2.789 h -57.27 c 0.88,-13.332 10.25,-24.461 25.49,-24.461 8.05,0 16.26,3.218 21.82,8.941 l 5.27,-7.18 c -7.03,-7.031 -16.55,-10.839 -28.12,-10.839 -20.94,0 -36.03,15.089 -36.03,37.199" /><path
         id="path742"
         style="fill:url(#pattern740);fill-opacity:1;fill-rule:nonzero;stroke:none"
         d="m 2079.36,208.23 5.71,7.911 c 4.69,-5.422 13.63,-10.11 23.29,-10.11 10.84,0 16.7,5.141 16.7,12.16 0,17.137 -43.8,6.59 -43.8,32.821 0,10.976 9.52,20.359 26.37,20.359 12.01,0 20.51,-4.539 26.22,-10.262 l -5.13,-7.621 c -4.24,5.141 -12.01,8.942 -21.09,8.942 -9.67,0 -15.67,-4.828 -15.67,-11.129 0,-15.531 43.79,-5.281 43.79,-32.821 0,-11.859 -9.51,-21.378 -27.83,-21.378 -11.57,0 -21.38,3.519 -28.56,11.128" /><path
         id="path758"
         style="fill:url(#pattern756);fill-opacity:1;fill-rule:nonzero;stroke:none"
         d="m 2149.96,198.859 v 70.75 h 10.99 v -70.75 z m -1.9,88.192 c 0,4.09 3.37,7.461 7.32,7.461 4.1,0 7.47,-3.371 7.47,-7.461 0,-4.11 -3.37,-7.34 -7.47,-7.34 -3.95,0 -7.32,3.23 -7.32,7.34" /><path
         id="path774"
         style="fill:url(#pattern772);fill-opacity:1;fill-rule:nonzero;stroke:none"
         d="m 2230.38,219.219 v 30.91 c -3.81,6.152 -12.31,11.422 -21.1,11.422 -14.21,0 -22.7,-11.281 -22.7,-26.949 0,-15.532 8.49,-26.961 22.7,-26.961 8.79,0 17.29,5.418 21.1,11.578 z m -51.27,-38.528 5.56,8.2 c 5.86,-7.02 12.89,-9.661 23,-9.661 11.72,0 22.71,5.711 22.71,21.239 v 10.113 c -5.13,-7.184 -13.77,-12.602 -23.73,-12.602 -18.46,0 -31.5,13.77 -31.5,36.622 0,22.699 12.89,36.769 31.5,36.769 9.52,0 18.01,-4.691 23.73,-12.449 v 10.687 h 10.98 V 200.91 c 0,-23.441 -16.4,-30.769 -33.69,-30.769 -12.01,0 -20.21,2.359 -28.56,10.55" /><path
         id="path790"
         style="fill:url(#pattern788);fill-opacity:1;fill-rule:nonzero;stroke:none"
         d="m 2307.42,198.859 v 46.282 c 0,12.461 -6.3,16.41 -15.82,16.41 -8.64,0 -16.84,-5.27 -20.94,-10.992 v -51.7 h -10.99 v 70.75 h 10.99 v -10.257 c 4.97,5.859 14.64,12.019 25.19,12.019 14.79,0 22.56,-7.48 22.56,-22.859 v -49.653 h -10.99" /><path
         id="path806"
         style="fill:url(#pattern804);fill-opacity:1;fill-rule:nonzero;stroke:none"
         d="m 2367.33,262.281 c -15.09,0 -22.56,-12.73 -23.14,-23.57 h 46.43 c -0.15,10.539 -7.18,23.57 -23.29,23.57 z m -34.72,-27.98 c 0,20.508 14.65,37.07 34.87,37.07 21.38,0 33.98,-16.699 33.98,-37.941 v -2.789 h -57.27 c 0.88,-13.332 10.25,-24.461 25.48,-24.461 8.06,0 16.26,3.218 21.83,8.941 l 5.27,-7.18 c -7.03,-7.031 -16.55,-10.839 -28.12,-10.839 -20.95,0 -36.04,15.089 -36.04,37.199" /><path
         id="path822"
         style="fill:url(#pattern820);fill-opacity:1;fill-rule:nonzero;stroke:none"
         d="m 2466.79,218.039 v 32.09 c -3.96,6.152 -12.45,11.422 -21.24,11.422 -14.21,0 -22.7,-11.711 -22.7,-27.391 0,-15.68 8.49,-27.25 22.7,-27.25 8.79,0 17.28,4.981 21.24,11.129 z m 0,-19.18 v 10.539 c -5.27,-7.179 -13.91,-12.296 -23.88,-12.296 -18.45,0 -31.49,14.07 -31.49,37.058 0,22.559 12.89,37.211 31.49,37.211 9.52,0 18.17,-4.691 23.88,-12.449 v 37.637 h 10.98 v -97.7 h -10.98" /><path
         id="path838"
         style="fill:url(#pattern836);fill-opacity:1;fill-rule:nonzero;stroke:none"
         d="m 2562.29,206.91 c 14.36,0 22.86,11.57 22.86,27.25 0,15.68 -8.5,27.391 -22.86,27.391 -8.65,0 -17.28,-5.27 -21.09,-11.422 v -32.09 c 3.81,-6.148 12.44,-11.129 21.09,-11.129 z m -32.09,-8.051 v 97.7 h 11 v -37.637 c 5.7,7.758 14.2,12.449 23.87,12.449 18.46,0 31.5,-14.652 31.5,-37.211 0,-22.988 -13.04,-37.058 -31.5,-37.058 -9.96,0 -18.6,5.117 -23.87,12.296 v -10.539 h -11" /><path
         id="path854"
         style="fill:url(#pattern852);fill-opacity:1;fill-rule:nonzero;stroke:none"
         d="m 2608.58,181.129 c 1.61,-0.731 4.24,-1.168 6,-1.168 4.84,0 8.07,1.609 10.55,7.469 l 4.68,10.691 -29.59,71.488 h 11.88 l 23.57,-58.007 23.44,58.007 h 12.01 l -35.45,-85.097 c -4.23,-10.25 -11.42,-14.223 -20.8,-14.371 -2.34,0 -5.99,0.441 -8.04,1.039 l 1.75,9.949" /></g></g></svg>