<svg width="500" height="500" viewBox="0 0 500 500" fill="none" xmlns="http://www.w3.org/2000/svg">
<g id="programmer_desk 1" clip-path="url(#clip0)">
<g id="svg-backdrop-cloud">
<path id="Vector" d="M223.602 247.587C181.332 248.187 118.832 280.497 92.812 239.847C70.992 205.767 96.192 172.387 55.812 147.207C26.4419 128.847 -21.298 96.6673 23.032 63.3273C57.702 37.2473 111.872 30.0073 153.862 35.9473C186.862 40.6473 255.392 60.2073 263.682 94.8073C273.002 133.697 212.582 165.807 277.182 180.457C316.052 189.267 362.932 211.827 335.462 258.347C324.632 276.697 309.182 273.507 292.812 266.277C268.702 255.637 252.702 247.177 223.602 247.587Z" fill="#407BFF"/>
<path id="Vector_2" opacity="0.9" d="M223.602 247.587C181.332 248.187 118.832 280.497 92.812 239.847C70.992 205.767 96.192 172.387 55.812 147.207C26.4419 128.847 -21.298 96.6673 23.032 63.3273C57.702 37.2473 111.872 30.0073 153.862 35.9473C186.862 40.6473 255.392 60.2073 263.682 94.8073C273.002 133.697 212.582 165.807 277.182 180.457C316.052 189.267 362.932 211.827 335.462 258.347C324.632 276.697 309.182 273.507 292.812 266.277C268.702 255.637 252.702 247.177 223.602 247.587Z" fill="white"/>
</g>
<g id="svg-table-floor">
<path id="freepik  path  inject 2" d="M189.89 405.64C296.972 405.64 383.78 400.572 383.78 394.32C383.78 388.068 296.972 383 189.89 383C82.8075 383 -4 388.068 -4 394.32C-4 400.572 82.8075 405.64 189.89 405.64Z" fill="#F5F5F5"/>
</g>
<g id="svg-table">
<path id="Vector_3" d="M359.75 226.42H20V238.61H359.75V226.42Z" fill="#407BFF"/>
<path id="Vector_4" opacity="0.3" d="M110.93 234H20V246.19H110.93V234Z" fill="white"/>
<path id="Vector_5" d="M112.38 238.61H104.47L108.61 391.39H112.38H116.15L120.3 238.61H112.38Z" fill="#407BFF"/>
<path id="Vector_6" opacity="0.3" d="M108.61 391.39H112.38V241.89L104.6 243.31L108.61 391.39Z" fill="white"/>
<path id="Vector_7" d="M37.41 238.61H29.5L33.64 391.39H37.41H41.18L45.32 238.61H37.41Z" fill="#407BFF"/>
<path id="Vector_8" opacity="0.3" d="M33.64 391.39H37.41V241.89L29.62 243.31L33.64 391.39Z" fill="white"/>
<path id="Vector_9" d="M342.34 238.61H334.43L338.57 391.39H342.34H346.11L350.26 238.61H342.34Z" fill="#407BFF"/>
<path id="Vector_10" opacity="0.3" d="M338.57 391.39H342.34V241.89L334.56 243.31L338.57 391.39Z" fill="white"/>
<path id="Vector_11" d="M267.37 238.61H259.46L263.6 391.39H267.37H271.14L275.28 238.61H267.37Z" fill="#407BFF"/>
<path id="Vector_12" opacity="0.3" d="M263.6 391.39H267.37V241.89L259.59 243.31L263.6 391.39Z" fill="white"/>
<path id="Vector_13" d="M181.27 161.16H100.49C99.8344 161.134 99.182 161.264 98.5861 161.538C97.9901 161.812 97.4675 162.224 97.0608 162.738C96.6542 163.253 96.3751 163.857 96.2464 164.5C96.1176 165.144 96.1428 165.808 96.32 166.44L107.08 217.79C107.426 219.242 108.236 220.542 109.388 221.493C110.539 222.444 111.968 222.994 113.46 223.06H194.3C194.954 223.085 195.606 222.956 196.201 222.682C196.796 222.408 197.318 221.998 197.724 221.484C198.13 220.971 198.41 220.369 198.539 219.727C198.669 219.085 198.645 218.421 198.47 217.79L187.7 166.44C187.353 164.978 186.537 163.67 185.375 162.716C184.214 161.762 182.772 161.216 181.27 161.16V161.16Z" fill="#263238"/>
<path id="Vector_14" d="M222.645 223H116.285C113.385 223 111.505 224.65 112.115 226.67H229.025C228.425 224.65 225.545 223 222.645 223Z" fill="#263238"/>
<path id="Vector_15" opacity="0.1" d="M77.7 148.18L67.49 99.52C67.4343 99.2325 67.4425 98.9362 67.5139 98.6522C67.5853 98.3681 67.7183 98.1033 67.9033 97.8762C68.0884 97.6492 68.321 97.4656 68.5848 97.3384C68.8486 97.2112 69.1372 97.1435 69.43 97.14H152.03C152.483 97.143 152.922 97.3 153.275 97.5853C153.627 97.8706 153.873 98.2672 153.97 98.71L164.18 147.33C164.237 147.618 164.23 147.916 164.16 148.201C164.089 148.486 163.956 148.752 163.771 148.981C163.586 149.209 163.353 149.393 163.088 149.521C162.823 149.649 162.534 149.717 162.24 149.72H79.64C79.1906 149.719 78.7549 149.566 78.4029 149.286C78.051 149.007 77.8034 148.617 77.7 148.18V148.18Z" fill="#407BFF"/>
<path id="Vector_16" d="M107.06 98.74H89.72L89.33 96.87H106.67L107.06 98.74Z" fill="#407BFF"/>
<path id="Vector_17" opacity="0.4" d="M104.24 101.72H97.28L96.89 99.85H103.85L104.24 101.72Z" fill="#407BFF"/>
<path id="Vector_18" opacity="0.4" d="M115.82 101.72H105.1L104.71 99.85H115.43L115.82 101.72Z" fill="#407BFF"/>
<path id="Vector_19" opacity="0.4" d="M120.49 104.69H97.9L97.51 102.82H120.11L120.49 104.69Z" fill="#407BFF"/>
<path id="Vector_20" opacity="0.4" d="M117.62 107.67H98.52L98.13 105.8H117.23L117.62 107.67Z" fill="#407BFF"/>
<path id="Vector_21" opacity="0.4" d="M130.29 139.28H118.13L118.52 141.14H130.68L130.29 139.28Z" fill="#407BFF"/>
<path id="Vector_22" d="M115.13 135.2H97.32L96.93 133.33H114.74L115.13 135.2Z" fill="#407BFF"/>
<path id="Vector_23" opacity="0.4" d="M122.29 142.25H105.73L106.12 144.12H122.68L122.29 142.25Z" fill="#407BFF"/>
<path id="Vector_24" opacity="0.4" d="M117.27 139.28H105.11L105.5 141.14H117.66L117.27 139.28Z" fill="#407BFF"/>
<path id="Vector_25" opacity="0.4" d="M128.81 136.3H104.49L104.88 138.17H129.2L128.81 136.3Z" fill="#407BFF"/>
<path id="Vector_26" d="M106.45 84.86H86.83L86.44 83H106.06L106.45 84.86Z" fill="#407BFF"/>
<path id="Vector_27" opacity="0.4" d="M116.14 91.92H94.5L94.89 93.79H116.52L116.14 91.92Z" fill="#407BFF"/>
<path id="Vector_28" opacity="0.4" d="M111.81 88.95H93.88L94.27 90.81H112.2L111.81 88.95Z" fill="#407BFF"/>
<path id="Vector_29" opacity="0.4" d="M113 85.97H93.26L93.65 87.84H113.39L113 85.97Z" fill="#407BFF"/>
<path id="Vector_30" d="M106.23 112.51H92.59L92.2 110.64H105.84L106.23 112.51Z" fill="#407BFF"/>
<path id="Vector_31" opacity="0.4" d="M127.65 119.56H101L101.39 121.43H128.03L127.65 119.56Z" fill="#407BFF"/>
<path id="Vector_32" opacity="0.4" d="M111.42 116.59H100.38L100.77 118.46H111.81L111.42 116.59Z" fill="#407BFF"/>
<path id="Vector_33" opacity="0.4" d="M123.4 116.59H112.36L112.75 118.46H123.79L123.4 116.59Z" fill="#407BFF"/>
<path id="Vector_34" opacity="0.4" d="M124.08 113.61H99.76L100.15 115.48H124.46L124.08 113.61Z" fill="#407BFF"/>
<path id="Vector_35" opacity="0.4" d="M124.03 128.49H102.86L103.25 130.35H124.42L124.03 128.49Z" fill="#407BFF"/>
<path id="Vector_36" opacity="0.4" d="M108.4 125.51H102.24L102.63 127.38H108.78L108.4 125.51Z" fill="#407BFF"/>
<path id="Vector_37" opacity="0.4" d="M118.03 125.51H109.24L109.63 127.38H118.42L118.03 125.51Z" fill="#407BFF"/>
<path id="Vector_38" opacity="0.4" d="M125.94 122.54H101.62L102.01 124.4H126.33L125.94 122.54Z" fill="#407BFF"/>
<path id="Vector_39" opacity="0.4" d="M145.09 122.04H136.38L135.99 120.17H144.71L145.09 122.04Z" fill="#407BFF"/>
<path id="Vector_40" opacity="0.4" d="M159.59 122.04H146.17L145.78 120.17H159.2L159.59 122.04Z" fill="#407BFF"/>
<path id="Vector_41" opacity="0.4" d="M165.29 125.02H137L136.61 123.15H164.9L165.29 125.02Z" fill="#407BFF"/>
<path id="Vector_42" opacity="0.4" d="M161.53 127.99H137.62L137.23 126.12H161.14L161.53 127.99Z" fill="#407BFF"/>
<path id="Vector_43" opacity="0.4" d="M172.24 110.21H145.15L145.54 112.07H172.63L172.24 110.21Z" fill="#407BFF"/>
<path id="Vector_44" opacity="0.4" d="M166.98 107.23H144.53L144.92 109.1H167.36L166.98 107.23Z" fill="#407BFF"/>
<path id="Vector_45" d="M162.92 104.26H138.2L138.59 106.12H163.31L162.92 104.26Z" fill="#407BFF"/>
<path id="Vector_46" opacity="0.4" d="M173.46 139.89H140.1L140.49 141.76H173.85L173.46 139.89Z" fill="#407BFF"/>
<path id="Vector_47" opacity="0.4" d="M153.3 136.92H139.48L139.87 138.78H153.69L153.3 136.92Z" fill="#407BFF"/>
<path id="Vector_48" opacity="0.4" d="M168.3 136.92H154.48L154.87 138.78H168.69L168.3 136.92Z" fill="#407BFF"/>
<path id="Vector_49" opacity="0.4" d="M169.3 133.94H138.86L139.25 135.81H169.69L169.3 133.94Z" fill="#407BFF"/>
<path id="Vector_50" opacity="0.4" d="M168.46 148.81H141.96L142.35 150.68H168.85L168.46 148.81Z" fill="#407BFF"/>
<path id="Vector_51" opacity="0.4" d="M149.05 145.84H141.34L141.73 147.71H149.44L149.05 145.84Z" fill="#407BFF"/>
<path id="Vector_52" opacity="0.4" d="M161.11 145.84H150.11L150.5 147.71H161.5L161.11 145.84Z" fill="#407BFF"/>
<path id="Vector_53" opacity="0.4" d="M171.17 142.86H140.72L141.11 144.73H171.55L171.17 142.86Z" fill="#407BFF"/>
<path id="Vector_54" opacity="0.4" d="M90.09 151.12H69.35L69.74 152.99H90.48L90.09 151.12Z" fill="#407BFF"/>
<path id="Vector_55" opacity="0.4" d="M83.96 148.15H68.73L69.12 150.01H84.34L83.96 148.15Z" fill="#407BFF"/>
<path id="Vector_56" opacity="0.4" d="M100.25 148.15H85.03L85.42 150.01H100.65L100.25 148.15Z" fill="#407BFF"/>
<path id="Vector_57" opacity="0.4" d="M98.56 145.17H68.11L68.5 147.04H98.94L98.56 145.17Z" fill="#407BFF"/>
<path id="Vector_58" d="M331.44 206.99H318.6L320.1 226.42H329.94L331.44 206.99Z" fill="#407BFF"/>
<path id="Vector_59" opacity="0.4" d="M331.44 206.99H318.6L320.1 226.42H329.94L331.44 206.99Z" fill="white"/>
<path id="Vector_60" d="M51.62 193.5H70.08L63.78 226.42H45.32L51.62 193.5Z" fill="#263238"/>
<path id="Vector_61" d="M75.13 184.68H49.06L56.36 226.42H82.43L75.13 184.68Z" fill="#407BFF"/>
<path id="Vector_62" d="M47.52 184.68H49.06L56.36 226.42H54.82L47.52 184.68Z" fill="#407BFF"/>
<path id="Vector_63" opacity="0.3" d="M47.52 184.68H49.06L56.36 226.42H54.82L47.52 184.68Z" fill="black"/>
<path id="Vector_64" d="M60.11 221.95L54.37 189.14H71.39L77.12 221.95H60.11Z" fill="white"/>
<path id="Vector_65" opacity="0.6" d="M76.31 221.95L70.58 189.14H71.39L77.12 221.95H76.31Z" fill="#407BFF"/>
</g>
<path id="svg-screen" d="M114.162 220.683C113.154 220.615 112.194 220.23 111.418 219.583C110.642 218.937 110.09 218.061 109.842 217.083L99.0818 165.733C98.9897 165.393 98.9752 165.037 99.0392 164.69C99.1033 164.344 99.2443 164.017 99.4518 163.733C99.6671 163.489 99.9343 163.297 100.234 163.171C100.533 163.044 100.857 162.987 101.182 163.003H182.022C183.029 163.071 183.99 163.455 184.766 164.102C185.542 164.748 186.093 165.624 186.342 166.603L197.102 217.953C197.194 218.292 197.208 218.648 197.144 218.995C197.08 219.341 196.939 219.668 196.732 219.953C196.518 220.198 196.251 220.391 195.951 220.517C195.651 220.644 195.327 220.7 195.002 220.683H114.162Z" fill="white"/>
<g id="svg-person">
<path id="Vector_66" d="M219.244 136.598C219.614 137.398 219.494 138.248 218.964 138.488C218.434 138.728 217.714 138.278 217.344 137.488C216.974 136.698 217.104 135.838 217.624 135.598C218.144 135.358 218.874 135.758 219.244 136.598Z" fill="#263238"/>
<path id="Vector_67" d="M219.564 138.178C219.564 138.178 219.884 143.638 218.904 146.798C220.904 147.468 223.064 145.798 223.064 145.798L219.564 138.178Z" fill="#FF5652"/>
<path id="Vector_68" d="M219.344 129.988C219.259 130.059 219.154 130.101 219.044 130.108C218.393 130.126 217.755 130.297 217.184 130.608C216.612 130.919 216.122 131.361 215.754 131.898C215.721 131.96 215.676 132.014 215.622 132.058C215.567 132.102 215.505 132.134 215.438 132.153C215.371 132.173 215.301 132.178 215.231 132.17C215.162 132.161 215.095 132.139 215.035 132.104C214.974 132.069 214.922 132.022 214.88 131.966C214.838 131.911 214.807 131.847 214.791 131.78C214.774 131.712 214.771 131.641 214.781 131.573C214.792 131.504 214.817 131.438 214.854 131.378C215.307 130.691 215.918 130.122 216.637 129.72C217.356 129.318 218.161 129.095 218.984 129.068C219.093 129.062 219.201 129.091 219.294 129.15C219.386 129.209 219.457 129.296 219.497 129.398C219.537 129.5 219.543 129.612 219.516 129.718C219.488 129.824 219.428 129.919 219.344 129.988V129.988Z" fill="#263238"/>
<path id="Vector_69" d="M248.694 135.358C251.784 146.058 255.234 154.358 259.444 159.098C259.444 159.098 259.524 167.508 245.194 171.508C229.434 175.908 235.474 165.788 235.474 165.788C243.474 161.338 242.714 154.618 236.694 152.058L248.694 135.358Z" fill="#FF8B7B"/>
<path id="Vector_70" d="M262.784 157.048C262.504 153.138 262.134 148.678 259.724 148.558C257.064 148.438 241.664 155.318 238.374 160.168C235.084 165.018 241.514 169.768 241.514 169.768L262.784 157.048Z" fill="#263238"/>
<path id="Vector_71" d="M231.264 217.598L217.964 217.158L218.204 228.298C218.204 228.298 229.804 227.098 230.314 224.048L231.264 217.598Z" fill="#FF8B7B"/>
<path id="Vector_72" d="M210.934 222.628L209.534 228.328L218.204 228.308L217.964 217.168L210.934 222.628Z" fill="#FF8B7B"/>
<path id="Vector_73" d="M284.644 171.308L284.364 174.168C284.274 175.088 284.154 175.988 284.034 176.898C283.804 178.708 283.514 180.518 283.204 182.318C282.604 185.928 281.824 189.518 280.924 193.128C280.009 196.808 278.901 200.436 277.604 203.998C276.914 205.828 276.194 207.658 275.334 209.518C274.467 211.47 273.464 213.357 272.334 215.168C272.064 215.638 271.724 216.168 271.394 216.608C271.064 217.048 270.744 217.608 270.394 218.068C270.044 218.528 269.674 219.068 269.214 219.538L268.564 220.278C268.331 220.551 268.084 220.812 267.824 221.058C265.819 223.021 263.47 224.598 260.894 225.708C256.941 227.404 252.747 228.467 248.464 228.858C246.514 229.088 244.584 229.178 242.694 229.228C240.804 229.278 238.914 229.228 237.054 229.128C235.194 229.028 233.354 228.868 231.524 228.648C229.694 228.428 227.914 228.138 225.974 227.748L226.294 217.298C232.679 216.182 238.99 214.679 245.194 212.798C246.573 212.35 247.929 211.829 249.254 211.238C250.382 210.762 251.46 210.176 252.474 209.488C253.063 209.134 253.562 208.648 253.934 208.068L254.224 207.608C254.358 207.412 254.482 207.208 254.594 206.998C254.736 206.769 254.866 206.532 254.984 206.288C255.114 206.028 255.254 205.788 255.384 205.498C256.558 202.934 257.525 200.278 258.274 197.558C259.094 194.618 259.864 191.558 260.484 188.388C261.104 185.218 261.704 182.018 262.254 178.788L263.014 173.928L263.704 169.198L284.644 171.308Z" fill="#407BFF"/>
<path id="Vector_74" opacity="0.2" d="M284.644 171.308L284.364 174.168C284.274 175.088 284.154 175.988 284.034 176.898C283.804 178.708 283.514 180.518 283.204 182.318C282.604 185.928 281.824 189.518 280.924 193.128C280.009 196.808 278.901 200.436 277.604 203.998C276.914 205.828 276.194 207.658 275.334 209.518C274.467 211.47 273.464 213.357 272.334 215.168C272.064 215.638 271.724 216.168 271.394 216.608C271.064 217.048 270.744 217.608 270.394 218.068C270.044 218.528 269.674 219.068 269.214 219.538L268.564 220.278C268.331 220.551 268.084 220.812 267.824 221.058C265.819 223.021 263.47 224.598 260.894 225.708C256.941 227.404 252.747 228.467 248.464 228.858C246.514 229.088 244.584 229.178 242.694 229.228C240.804 229.278 238.914 229.228 237.054 229.128C235.194 229.028 233.354 228.868 231.524 228.648C229.694 228.428 227.914 228.138 225.974 227.748L226.294 217.298C232.679 216.182 238.99 214.679 245.194 212.798C246.573 212.35 247.929 211.829 249.254 211.238C250.382 210.762 251.46 210.176 252.474 209.488C253.063 209.134 253.562 208.648 253.934 208.068L254.224 207.608C254.358 207.412 254.482 207.208 254.594 206.998C254.736 206.769 254.866 206.532 254.984 206.288C255.114 206.028 255.254 205.788 255.384 205.498C256.558 202.934 257.525 200.278 258.274 197.558C259.094 194.618 259.864 191.558 260.484 188.388C261.104 185.218 261.704 182.018 262.254 178.788L263.014 173.928L263.704 169.198L284.644 171.308Z" fill="black"/>
<path id="Vector_75" d="M225.594 184.598C230.552 205.977 233.343 227.8 233.924 249.738H292.474C292.794 242.508 291.574 201.738 285.684 172.288C285.161 169.621 284.11 167.085 282.593 164.829C281.077 162.574 279.124 160.644 276.851 159.153C274.578 157.663 272.03 156.641 269.357 156.149C266.683 155.657 263.938 155.705 261.284 156.288L261.004 156.358C253.694 158.018 243.204 160.698 237.004 163.048L236.754 163.148C232.607 164.761 229.189 167.826 227.135 171.772C225.082 175.719 224.534 180.278 225.594 184.598V184.598Z" fill="#407BFF"/>
<path id="Vector_76" opacity="0.2" d="M229.404 203.298C229.864 206.108 230.334 209.088 230.764 212.208C235.554 207.208 237.074 191.888 237.074 191.888L229.404 203.298Z" fill="black"/>
<path id="Vector_77" d="M180.764 218.328L167.474 217.088L167.034 228.218C169.23 228.825 171.551 228.818 173.744 228.199C175.936 227.581 177.918 226.373 179.474 224.708L180.764 218.328Z" fill="#FF8B7B"/>
<path id="Vector_78" d="M161.154 220.368L156.894 228.018L167.074 228.218L167.514 217.088L161.154 220.368Z" fill="#FF8B7B"/>
<path id="Vector_79" d="M247.564 179.468C246.644 181.218 245.824 182.768 244.904 184.368C243.984 185.968 243.104 187.528 242.154 189.078C240.274 192.198 238.324 195.258 236.264 198.288C232.128 204.493 227.546 210.389 222.554 215.928C219.88 218.911 216.975 221.676 213.864 224.198C213.474 224.528 213.014 224.848 212.584 225.198C212.154 225.548 211.774 225.828 211.134 226.198C210.494 226.568 209.954 226.938 209.374 227.258C208.794 227.578 208.194 227.868 207.604 228.128C205.398 229.086 203.089 229.787 200.724 230.218C196.586 230.916 192.369 231.01 188.204 230.498C186.253 230.275 184.317 229.941 182.404 229.498C181.45 229.278 180.51 229.028 179.584 228.748C178.584 228.468 177.774 228.158 176.704 227.748L178.354 217.428C184.634 216.578 191.424 215.488 196.104 213.368C197.143 212.942 198.121 212.38 199.014 211.698C199.373 211.451 199.708 211.17 200.014 210.858C200.084 210.768 200.394 210.498 200.624 210.278C200.854 210.058 201.124 209.848 201.374 209.588C203.514 207.467 205.518 205.213 207.374 202.838C211.4 197.645 215.161 192.251 218.644 186.678C220.444 183.848 222.194 180.968 223.944 178.078L226.524 173.738L229.014 169.468L247.564 179.468Z" fill="#407BFF"/>
<path id="Vector_80" d="M231.494 388.198H220.554L215.044 362.848H225.994L231.494 388.198Z" fill="#FF8B7B"/>
<path id="Vector_81" d="M219.944 385.858H232.244C232.457 385.866 232.663 385.942 232.831 386.075C232.998 386.209 233.118 386.392 233.174 386.598L235.334 396.338C235.385 396.575 235.382 396.82 235.325 397.056C235.268 397.291 235.159 397.51 235.005 397.697C234.851 397.884 234.656 398.033 234.436 398.134C234.216 398.235 233.976 398.284 233.734 398.278C229.444 398.208 227.354 397.958 221.944 397.958C218.614 397.958 214.344 398.298 209.754 398.298C205.164 398.298 204.554 393.758 206.434 393.348C214.874 391.498 215.434 388.958 218.164 386.528C218.653 386.092 219.288 385.853 219.944 385.858Z" fill="#263238"/>
<g id="Group" opacity="0.2">
<path id="Vector_82" opacity="0.2" d="M226.004 362.858H215.044L218.104 376.898L228.844 375.928L226.004 362.858Z" fill="black"/>
</g>
<path id="Vector_83" d="M245.184 122.498C249.184 132.618 251.964 138.348 249.324 145.698C245.324 156.748 231.134 157.868 224.234 149.128C218.034 141.258 212.614 126.028 220.444 117.658C222.158 115.803 224.319 114.417 226.721 113.632C229.122 112.847 231.685 112.69 234.164 113.175C236.644 113.66 238.958 114.772 240.887 116.403C242.815 118.035 244.295 120.134 245.184 122.498V122.498Z" fill="#FF8B7B"/>
<path id="Vector_84" d="M225.964 137.658C224.324 139.858 223.064 141.528 223.064 141.528C223.064 141.528 219.694 133.158 220.984 129.318C219.344 126.068 216.034 130.858 214.784 124.528C213.534 118.198 218.944 111.398 220.984 109.988C221.194 110.726 221.288 111.492 221.264 112.258C226.776 107.785 233.782 105.572 240.864 106.068C240.272 106.949 239.895 107.956 239.764 109.008C239.764 109.008 251.634 111.008 254.334 117.728C253.379 117.273 252.371 116.937 251.334 116.728C253.51 119.848 254.372 123.699 253.734 127.448C252.872 132.917 252.425 138.443 252.394 143.978C252.504 146.818 244.714 152.248 239.964 146.448C235.214 140.648 225.964 137.658 225.964 137.658Z" fill="#263238"/>
<path id="Vector_85" d="M230.914 135.478C231.533 137.836 231.357 140.331 230.414 142.578C229.144 145.578 226.534 144.858 225.244 142.238C224.074 139.888 223.324 135.528 225.394 133.438C227.464 131.348 230.134 132.648 230.914 135.478Z" fill="#FF8B7B"/>
<path id="Vector_86" d="M251.474 249.698C251.474 249.698 200.634 268.138 199.144 292.528C196.384 337.458 214.754 373.028 214.754 373.028L231.594 371.228C231.594 371.228 228.594 356.768 226.364 316.068C223.554 264.918 310.364 317.268 292.484 249.698H251.474Z" fill="#407BFF"/>
<path id="Vector_87" opacity="0.5" d="M251.474 249.698C251.474 249.698 200.634 268.138 199.144 292.528C196.384 337.458 214.754 373.028 214.754 373.028L231.594 371.228C231.594 371.228 228.594 356.768 226.364 316.068C223.554 264.918 310.364 317.268 292.484 249.698H251.474Z" fill="white"/>
<path id="Vector_88" d="M210.094 366.828C210.014 366.828 212.774 374.308 212.774 374.308L233.774 372.248L232.724 365.448L210.094 366.828Z" fill="#407BFF"/>
<path id="Vector_89" d="M184.204 389.448H173.254L170.054 364.088H181.004L184.204 389.448Z" fill="#FF8B7B"/>
<path id="Vector_90" d="M173.174 385.848H185.174C185.39 385.846 185.601 385.918 185.77 386.053C185.94 386.188 186.058 386.377 186.104 386.588L188.284 396.318C188.347 396.557 188.355 396.807 188.305 397.048C188.256 397.29 188.151 397.517 187.998 397.711C187.846 397.905 187.651 398.061 187.428 398.166C187.205 398.272 186.96 398.324 186.714 398.318C182.404 398.248 176.164 398.008 170.714 398.018C164.374 398.018 163.164 398.368 155.714 398.378C151.214 398.378 149.964 393.848 151.844 393.378C160.404 391.498 163.144 391.288 170.534 386.718C171.314 386.185 172.229 385.883 173.174 385.848Z" fill="#263238"/>
<path id="Vector_91" opacity="0.2" d="M170.064 364.098L171.804 377.908L182.664 377.168L181.014 364.098H170.064Z" fill="black"/>
<path id="Vector_92" d="M233.924 249.698C233.924 249.698 150.624 257.088 151.524 298.928C152.454 342.448 168.714 371.798 168.714 371.798H184.974C184.974 371.798 181.894 349.218 182.444 306.378C182.604 293.548 208.544 289.308 233.864 287.808C255.744 286.508 276.224 274.038 284.724 253.808L286.474 249.698H233.924Z" fill="#407BFF"/>
<path id="Vector_93" opacity="0.5" d="M233.924 249.698C233.924 249.698 150.624 257.088 151.524 298.928C152.454 342.448 168.714 371.798 168.714 371.798H184.974C184.974 371.798 181.894 349.218 182.444 306.378C182.604 293.548 208.544 289.308 233.864 287.808C255.744 286.508 276.224 274.038 284.724 253.808L286.474 249.698H233.924Z" fill="white"/>
<path id="Vector_94" d="M164.904 367.428C164.834 367.428 167.694 374.948 167.694 374.948L187.334 373.538L186.184 366.738L164.904 367.428Z" fill="#407BFF"/>
<path id="Vector_95" d="M255.794 202.678L245.224 243.408C242.521 253.843 241.157 264.579 241.164 275.358V294.288C241.164 299.068 244.684 302.948 249.034 302.948H303.214C307.564 302.948 311.084 299.068 311.084 294.288V275.358C311.08 264.579 312.448 253.843 315.154 243.408L324.484 207.408C325.924 201.878 322.144 196.408 316.914 196.408H263.354C261.576 196.464 259.867 197.111 258.498 198.247C257.129 199.382 256.177 200.942 255.794 202.678Z" fill="#263238"/>
<path id="Vector_96" d="M188.404 283.228L190.174 293.328C191.114 298.638 195.784 302.948 200.614 302.948H260.844C265.674 302.948 268.844 298.638 267.904 293.328L266.134 283.228C265.064 277.178 259.754 272.278 254.254 272.278H196.474C190.934 272.278 187.344 277.178 188.404 283.228Z" fill="#263238"/>
<path id="Vector_97" d="M266.644 313.088H235.094L232.014 302.948H269.724L266.644 313.088Z" fill="#407BFF"/>
<path id="Vector_98" d="M256.504 313.088H245.234V388.498H256.504V313.088Z" fill="#407BFF"/>
<path id="Vector_99" opacity="0.7" d="M256.504 388.498H245.234V314.898L256.504 316.048V388.498Z" fill="white"/>
<path id="Vector_100" opacity="0.7" d="M253.754 388.498H251.064V315.488L253.754 315.768V388.498Z" fill="white"/>
<path id="Vector_101" d="M276.784 400.158H224.944C224.641 400.156 224.348 400.058 224.104 399.879C223.861 399.7 223.68 399.449 223.587 399.161C223.494 398.874 223.494 398.564 223.586 398.276C223.679 397.989 223.86 397.738 224.104 397.558L232.324 391.558C236.275 388.664 241.045 387.102 245.944 387.098H255.794C260.689 387.104 265.455 388.666 269.404 391.558L277.634 397.558C277.878 397.738 278.059 397.99 278.152 398.279C278.244 398.567 278.243 398.878 278.149 399.166C278.055 399.454 277.872 399.705 277.627 399.883C277.382 400.061 277.087 400.158 276.784 400.158Z" fill="#407BFF"/>
</g>
<g id="svg-screen-contents">
<path id="Vector_102" opacity="0.4" d="M175.78 217.08L165.58 168.39C165.523 168.102 165.53 167.804 165.6 167.519C165.671 167.234 165.804 166.968 165.989 166.739C166.174 166.511 166.407 166.327 166.672 166.199C166.937 166.071 167.226 166.003 167.52 166H180.64C181.095 166.004 181.535 166.162 181.888 166.449C182.24 166.736 182.485 167.135 182.58 167.58L192.78 216.23C192.837 216.518 192.83 216.816 192.76 217.101C192.689 217.386 192.557 217.652 192.371 217.881C192.186 218.109 191.953 218.293 191.688 218.421C191.423 218.549 191.134 218.617 190.84 218.62H177.72C177.271 218.619 176.835 218.466 176.483 218.186C176.131 217.907 175.883 217.517 175.78 217.08V217.08Z" fill="#407BFF"/>
<path id="Vector_103" d="M105.44 170.26L105 168.15H121.2L121.64 170.26H105.44Z" fill="#407BFF"/>
<path id="Vector_104" d="M113.92 175.5L113.48 173.39H141.87L142.32 175.5H113.92Z" fill="#EBEBEB"/>
<path id="Vector_105" d="M115.42 180.73L114.97 178.62H146.8L147.24 180.73H115.42Z" fill="#EBEBEB"/>
<path id="Vector_106" d="M116.91 185.97L116.47 183.86H142.09L142.54 185.97H116.91Z" fill="#EBEBEB"/>
<path id="Vector_107" d="M111.37 194.46L110.92 192.35H121.17L121.61 194.46H111.37Z" fill="#407BFF"/>
<path id="Vector_108" d="M118.84 199.69L118.4 197.58H130.88L131.33 199.69H118.84Z" fill="#EBEBEB"/>
<path id="Vector_109" d="M133.32 199.69L132.87 197.58H145.36L145.8 199.69H133.32Z" fill="#EBEBEB"/>
<path id="Vector_110" d="M120.34 204.93L119.9 202.82H162.1L162.54 204.93H120.34Z" fill="#EBEBEB"/>
<path id="Vector_111" d="M121.83 210.16L121.39 208.05H153.57L154.01 210.16H121.83Z" fill="#EBEBEB"/>
</g>
</g>
<defs>
<clipPath id="clip0">
<rect width="500" height="500" fill="white"/>
</clipPath>
</defs>
</svg>
